<?xml version="1.0" encoding="UTF-8"?><svg xmlns="http://www.w3.org/2000/svg" xmlns:xlink="http://www.w3.org/1999/xlink" fill-opacity="1" color-rendering="auto" color-interpolation="auto" text-rendering="auto" stroke="black" stroke-linecap="square" width="1125" stroke-miterlimit="10" shape-rendering="auto" stroke-opacity="1" fill="black" stroke-dasharray="none" font-weight="normal" stroke-width="1" height="490" font-family="'Dialog'" font-style="normal" stroke-linejoin="miter" font-size="12px" stroke-dashoffset="0" image-rendering="auto">
  <!--Generated by ySVG 2.5-->
  <defs id="genericDefs"/>
  <g>
    <defs id="defs1">
      <clipPath clipPathUnits="userSpaceOnUse" id="clipPath1">
        <path d="M0 0 L1125 0 L1125 490 L0 490 L0 0 Z"/>
      </clipPath>
      <clipPath clipPathUnits="userSpaceOnUse" id="clipPath2">
        <path d="M-17 -20 L1108 -20 L1108 470 L-17 470 L-17 -20 Z"/>
      </clipPath>
    </defs>
    <g fill="white" text-rendering="geometricPrecision" shape-rendering="geometricPrecision" transform="translate(17,20)" stroke="white">
      <rect x="-17" width="1125" height="490" y="-20" clip-path="url(#clipPath2)" stroke="none"/>
    </g>
    <g stroke-linecap="butt" transform="matrix(1,0,0,1,17,20)" fill="rgb(51,153,102)" text-rendering="geometricPrecision" shape-rendering="geometricPrecision" stroke-dasharray="12,4" stroke="rgb(51,153,102)" stroke-width="2" stroke-miterlimit="1.45">
      <path fill="none" d="M725 235 L790 235" clip-path="url(#clipPath2)"/>
      <path fill="none" stroke-dasharray="none" d="M840 400 L840 55" clip-path="url(#clipPath2)"/>
    </g>
    <g stroke-linecap="round" transform="matrix(1,0,0,1,17,20)" stroke-dashoffset="2" text-rendering="geometricPrecision" shape-rendering="geometricPrecision" stroke-dasharray="0,8" stroke-width="2" stroke-miterlimit="1.45">
      <path fill="none" d="M777.4993 20 L840 20 L840 45" clip-path="url(#clipPath2)"/>
      <path fill="none" d="M702.5011 50 L835 50" clip-path="url(#clipPath2)"/>
      <path fill="none" d="M777.4993 80 L840 80 L840 55" clip-path="url(#clipPath2)"/>
    </g>
    <g stroke-linecap="butt" transform="matrix(1,0,0,1,17,20)" fill="rgb(51,153,102)" text-rendering="geometricPrecision" shape-rendering="geometricPrecision" stroke="rgb(51,153,102)" stroke-width="2" stroke-miterlimit="1.45">
      <path fill="none" d="M795 230 L795 145" clip-path="url(#clipPath2)"/>
      <path fill="none" d="M840 45 L840 10" clip-path="url(#clipPath2)"/>
      <path fill="none" d="M100 375 L100 360" stroke-width="3" clip-path="url(#clipPath2)"/>
    </g>
    <g stroke-linecap="round" transform="matrix(1,0,0,1,17,20)" stroke-dashoffset="2" text-rendering="geometricPrecision" shape-rendering="geometricPrecision" stroke-dasharray="0,8" stroke-width="2" stroke-miterlimit="1.45">
      <path fill="none" d="M162.4688 355 L105 355" clip-path="url(#clipPath2)"/>
      <path fill="none" d="M100 335 L100 350" clip-path="url(#clipPath2)"/>
      <path fill="none" d="M37.4968 355 L95 355" clip-path="url(#clipPath2)"/>
    </g>
    <g stroke-linecap="butt" transform="matrix(1,0,0,1,17,20)" fill="rgb(51,153,102)" text-rendering="geometricPrecision" shape-rendering="geometricPrecision" stroke="rgb(51,153,102)" stroke-width="2" stroke-miterlimit="1.45">
      <path fill="none" d="M990 50 L1060 50" clip-path="url(#clipPath2)"/>
    </g>
    <g stroke-linecap="round" transform="matrix(1,0,0,1,17,20)" stroke-dashoffset="2" text-rendering="geometricPrecision" shape-rendering="geometricPrecision" stroke-dasharray="0,8" stroke-width="2" stroke-miterlimit="1.45">
      <path fill="none" d="M1065 64.9609 L1065 55" clip-path="url(#clipPath2)"/>
    </g>
    <g stroke-linecap="butt" transform="matrix(1,0,0,1,17,20)" fill="rgb(51,153,102)" text-rendering="geometricPrecision" shape-rendering="geometricPrecision" stroke="rgb(51,153,102)" stroke-width="2" stroke-miterlimit="1.45">
      <path fill="none" d="M595 330 L720 330 L720 310" clip-path="url(#clipPath2)"/>
    </g>
    <g stroke-linecap="round" transform="matrix(1,0,0,1,17,20)" stroke-dashoffset="2" text-rendering="geometricPrecision" shape-rendering="geometricPrecision" stroke-dasharray="0,8" stroke-width="2" stroke-miterlimit="1.45">
      <path fill="none" d="M662.4944 305 L715 305" clip-path="url(#clipPath2)"/>
    </g>
    <g stroke-linecap="butt" transform="matrix(1,0,0,1,17,20)" fill="rgb(51,153,102)" text-rendering="geometricPrecision" shape-rendering="geometricPrecision" stroke="rgb(51,153,102)" stroke-width="2" stroke-miterlimit="1.45">
      <path fill="none" d="M450 105 L450 200" clip-path="url(#clipPath2)"/>
    </g>
    <g stroke-linecap="round" transform="matrix(1,0,0,1,17,20)" stroke-dashoffset="2" text-rendering="geometricPrecision" shape-rendering="geometricPrecision" stroke-dasharray="0,8" stroke-width="2" stroke-miterlimit="1.45">
      <path fill="none" d="M382.4993 205 L445 205" clip-path="url(#clipPath2)"/>
      <path fill="none" d="M450 219.9609 L450 210" clip-path="url(#clipPath2)"/>
      <path fill="none" d="M517.4688 205 L455 205" clip-path="url(#clipPath2)"/>
      <path fill="none" d="M522.4688 170 L450 170 L450 200" clip-path="url(#clipPath2)"/>
      <path fill="none" d="M515 135 L450 135 L450 200" clip-path="url(#clipPath2)"/>
    </g>
    <g stroke-linecap="butt" transform="matrix(1,0,0,1,17,20)" fill="rgb(51,153,102)" text-rendering="geometricPrecision" shape-rendering="geometricPrecision" stroke-dasharray="12,4" stroke="rgb(51,153,102)" stroke-width="2" stroke-miterlimit="1.45">
      <path fill="none" d="M720 300 L720 275" clip-path="url(#clipPath2)"/>
    </g>
    <g stroke-linecap="round" transform="matrix(1,0,0,1,17,20)" stroke-dashoffset="2" text-rendering="geometricPrecision" shape-rendering="geometricPrecision" stroke-dasharray="0,8" stroke-width="2" stroke-miterlimit="1.45">
      <path fill="none" d="M662.4944 270 L715 270" clip-path="url(#clipPath2)"/>
    </g>
    <g stroke-linecap="butt" transform="matrix(1,0,0,1,17,20)" fill="rgb(51,153,102)" text-rendering="geometricPrecision" shape-rendering="geometricPrecision" stroke="rgb(51,153,102)" stroke-width="3" stroke-miterlimit="1.45">
      <path fill="none" d="M55 415 L55 430" clip-path="url(#clipPath2)"/>
      <path fill="none" stroke-dasharray="12,4" d="M840 400 L840 330 L595 330" stroke-width="2" clip-path="url(#clipPath2)"/>
    </g>
    <g stroke-linecap="round" transform="matrix(1,0,0,1,17,20)" stroke-dashoffset="2" text-rendering="geometricPrecision" shape-rendering="geometricPrecision" stroke-dasharray="0,8" stroke-width="2" stroke-miterlimit="1.45">
      <path fill="none" d="M590 315 L590 325" clip-path="url(#clipPath2)"/>
      <path fill="none" d="M323.5007 330 L585 330" clip-path="url(#clipPath2)"/>
      <path fill="none" d="M445 345 L445 330 L585 330" clip-path="url(#clipPath2)"/>
      <path fill="none" d="M590 345 L590 335" clip-path="url(#clipPath2)"/>
    </g>
    <g stroke-linecap="butt" transform="matrix(1,0,0,1,17,20)" fill="rgb(51,153,102)" text-rendering="geometricPrecision" shape-rendering="geometricPrecision" stroke-dasharray="12,4" stroke="rgb(51,153,102)" stroke-width="2" stroke-miterlimit="1.45">
      <path fill="none" d="M790 140 L720 140" clip-path="url(#clipPath2)"/>
    </g>
    <g stroke-linecap="round" transform="matrix(1,0,0,1,17,20)" stroke-dashoffset="2" text-rendering="geometricPrecision" shape-rendering="geometricPrecision" stroke-dasharray="0,8" stroke-width="2" stroke-miterlimit="1.45">
      <path fill="none" d="M617.5139 140 L710 140" clip-path="url(#clipPath2)"/>
      <path fill="none" d="M715 155 L715 145" clip-path="url(#clipPath2)"/>
    </g>
    <g stroke-linecap="butt" transform="matrix(1,0,0,1,17,20)" fill="rgb(51,153,102)" text-rendering="geometricPrecision" shape-rendering="geometricPrecision" stroke="rgb(51,153,102)" stroke-width="3" stroke-miterlimit="1.45">
      <path fill="none" d="M60 435 L235 435" clip-path="url(#clipPath2)"/>
      <path fill="none" d="M985 55 L985 70" stroke-width="2" clip-path="url(#clipPath2)"/>
    </g>
    <g stroke-linecap="round" transform="matrix(1,0,0,1,17,20)" stroke-dashoffset="2" text-rendering="geometricPrecision" shape-rendering="geometricPrecision" stroke-dasharray="0,8" stroke-width="2" stroke-miterlimit="1.45">
      <path fill="none" d="M912.5017 75 L980 75" clip-path="url(#clipPath2)"/>
      <path fill="none" d="M985 90 L985 80" clip-path="url(#clipPath2)"/>
    </g>
    <g stroke-linecap="butt" transform="matrix(1,0,0,1,17,20)" fill="rgb(51,153,102)" text-rendering="geometricPrecision" shape-rendering="geometricPrecision" stroke="rgb(51,153,102)" stroke-width="2" stroke-miterlimit="1.45">
      <path fill="none" d="M240 375 L240 265" clip-path="url(#clipPath2)"/>
    </g>
    <g stroke-linecap="round" transform="matrix(1,0,0,1,17,20)" stroke-dashoffset="2" text-rendering="geometricPrecision" shape-rendering="geometricPrecision" stroke-dasharray="0,8" stroke-width="2" stroke-miterlimit="1.45">
      <path fill="none" d="M240 245 L240 255" clip-path="url(#clipPath2)"/>
    </g>
    <g stroke-linecap="butt" transform="matrix(1,0,0,1,17,20)" fill="rgb(51,153,102)" text-rendering="geometricPrecision" shape-rendering="geometricPrecision" stroke="rgb(51,153,102)" stroke-width="2" stroke-miterlimit="1.45">
      <path fill="none" d="M240 430 L240 385" clip-path="url(#clipPath2)"/>
      <path fill="none" d="M450 200 L450 115 L710 115" clip-path="url(#clipPath2)"/>
      <path fill="none" stroke-dasharray="12,4" d="M715 135 L715 120" clip-path="url(#clipPath2)" stroke="red"/>
      <path fill="none" d="M720 265 L720 240" clip-path="url(#clipPath2)"/>
    </g>
    <g stroke-linecap="round" transform="matrix(1,0,0,1,17,20)" stroke-dashoffset="2" text-rendering="geometricPrecision" shape-rendering="geometricPrecision" stroke-dasharray="0,8" stroke-width="2" stroke-miterlimit="1.45">
      <path fill="none" d="M720 220 L720 230" clip-path="url(#clipPath2)"/>
      <path fill="none" d="M638.5061 235 L715 235" clip-path="url(#clipPath2)"/>
    </g>
    <g stroke-linecap="butt" transform="matrix(1,0,0,1,17,20)" fill="rgb(51,153,102)" text-rendering="geometricPrecision" shape-rendering="geometricPrecision" stroke="rgb(51,153,102)" stroke-width="2" stroke-miterlimit="1.45">
      <path fill="none" d="M235 380 L105 380" clip-path="url(#clipPath2)"/>
      <path fill="none" d="M845 50 L980 50" clip-path="url(#clipPath2)"/>
    </g>
    <g stroke-linecap="round" transform="matrix(1,0,0,1,17,20)" stroke-dashoffset="2" text-rendering="geometricPrecision" shape-rendering="geometricPrecision" stroke-dasharray="0,8" stroke-width="2" stroke-miterlimit="1.45">
      <path fill="none" d="M139.9609 410 L60 410" clip-path="url(#clipPath2)"/>
    </g>
    <g stroke-linecap="butt" transform="matrix(1,0,0,1,17,20)" fill="rgb(51,153,102)" text-rendering="geometricPrecision" shape-rendering="geometricPrecision" stroke-dasharray="12,4" stroke="rgb(51,153,102)" stroke-width="2" stroke-miterlimit="1.45">
      <path fill="none" d="M840 55 L840 100 L455 100" clip-path="url(#clipPath2)"/>
    </g>
    <g stroke-linecap="round" transform="matrix(1,0,0,1,17,20)" stroke-dashoffset="2" text-rendering="geometricPrecision" shape-rendering="geometricPrecision" stroke-dasharray="0,8" stroke-width="2" stroke-miterlimit="1.45">
      <path fill="none" d="M450 80 L450 95" clip-path="url(#clipPath2)"/>
      <path fill="none" d="M387.4968 100 L445 100" clip-path="url(#clipPath2)"/>
    </g>
    <g stroke-linecap="butt" transform="matrix(1,0,0,1,17,20)" fill="rgb(51,153,102)" text-rendering="geometricPrecision" shape-rendering="geometricPrecision" stroke="rgb(51,153,102)" stroke-width="2" stroke-miterlimit="1.45">
      <path fill="none" d="M245 380 L840 380 L840 400" clip-path="url(#clipPath2)"/>
    </g>
    <g stroke-linecap="round" transform="matrix(1,0,0,1,17,20)" stroke-dashoffset="2" text-rendering="geometricPrecision" shape-rendering="geometricPrecision" stroke-dasharray="0,8" stroke-width="2" stroke-miterlimit="1.45">
      <path fill="none" d="M777.4968 405 L835 405" clip-path="url(#clipPath2)"/>
      <path fill="none" d="M840 424.9707 L840 410" clip-path="url(#clipPath2)"/>
      <path fill="none" d="M902.4688 405 L845 405" clip-path="url(#clipPath2)"/>
    </g>
    <g stroke-linecap="butt" transform="matrix(1,0,0,1,17,20)" fill="rgb(51,153,102)" text-rendering="geometricPrecision" shape-rendering="geometricPrecision" stroke="rgb(51,153,102)" stroke-width="2" stroke-miterlimit="1.45">
      <path fill="none" d="M245 260 L300 260" clip-path="url(#clipPath2)"/>
    </g>
    <g stroke-linecap="round" transform="matrix(1,0,0,1,17,20)" stroke-dashoffset="2" text-rendering="geometricPrecision" shape-rendering="geometricPrecision" stroke-dasharray="0,8" stroke-width="2" stroke-miterlimit="1.45">
      <path fill="none" d="M305 279.9707 L305 265" clip-path="url(#clipPath2)"/>
      <path fill="none" d="M367.4688 260 L310 260" clip-path="url(#clipPath2)"/>
    </g>
    <g text-rendering="geometricPrecision" shape-rendering="geometricPrecision" transform="matrix(1,0,0,1,17,20)">
      <circle r="5" clip-path="url(#clipPath2)" cx="795" cy="235" stroke="none"/>
      <circle stroke-linecap="butt" clip-path="url(#clipPath2)" fill="none" r="5" cx="795" cy="235" stroke-miterlimit="1.45"/>
      <text stroke-linecap="butt" x="760.4443" y="239.5352" clip-path="url(#clipPath2)" font-family="sans-serif" stroke="none" stroke-miterlimit="1.45" xml:space="preserve">bus.800aux</text>
      <circle r="5" clip-path="url(#clipPath2)" cx="840" cy="50" stroke="none"/>
      <circle stroke-linecap="butt" clip-path="url(#clipPath2)" fill="none" r="5" cx="840" cy="50" stroke-miterlimit="1.45"/>
      <text stroke-linecap="butt" x="816.1611" y="54.5352" clip-path="url(#clipPath2)" font-family="sans-serif" stroke="none" stroke-miterlimit="1.45" xml:space="preserve">bus.671</text>
      <circle r="5" clip-path="url(#clipPath2)" cx="795" cy="140" stroke="none"/>
      <circle stroke-linecap="butt" clip-path="url(#clipPath2)" fill="none" r="5" cx="795" cy="140" stroke-miterlimit="1.45"/>
      <text stroke-linecap="butt" x="771.1611" y="144.5352" clip-path="url(#clipPath2)" font-family="sans-serif" stroke="none" stroke-miterlimit="1.45" xml:space="preserve">bus.800</text>
      <circle r="5" clip-path="url(#clipPath2)" cx="840" cy="5" stroke="none"/>
      <circle stroke-linecap="butt" clip-path="url(#clipPath2)" fill="none" r="5" cx="840" cy="5" stroke-miterlimit="1.45"/>
      <text stroke-linecap="butt" x="816.1611" y="9.5352" clip-path="url(#clipPath2)" font-family="sans-serif" stroke="none" stroke-miterlimit="1.45" xml:space="preserve">bus.680</text>
      <circle r="5" clip-path="url(#clipPath2)" cx="100" cy="355" stroke="none"/>
      <circle stroke-linecap="butt" clip-path="url(#clipPath2)" fill="none" r="5" cx="100" cy="355" stroke-miterlimit="1.45"/>
      <text stroke-linecap="butt" x="76.1611" y="359.5352" clip-path="url(#clipPath2)" font-family="sans-serif" stroke="none" stroke-miterlimit="1.45" xml:space="preserve">bus.634</text>
      <circle r="5" clip-path="url(#clipPath2)" cx="1065" cy="50" stroke="none"/>
      <circle stroke-linecap="butt" clip-path="url(#clipPath2)" fill="none" r="5" cx="1065" cy="50" stroke-miterlimit="1.45"/>
      <text stroke-linecap="butt" x="1041.1611" y="54.5352" clip-path="url(#clipPath2)" font-family="sans-serif" stroke="none" stroke-miterlimit="1.45" xml:space="preserve">bus.652</text>
      <circle r="5" clip-path="url(#clipPath2)" cx="720" cy="305" stroke="none"/>
      <circle stroke-linecap="butt" clip-path="url(#clipPath2)" fill="none" r="5" cx="720" cy="305" stroke-miterlimit="1.45"/>
      <text stroke-linecap="butt" x="696.1611" y="309.5352" clip-path="url(#clipPath2)" font-family="sans-serif" stroke="none" stroke-miterlimit="1.45" xml:space="preserve">bus.701</text>
      <circle r="5" clip-path="url(#clipPath2)" cx="450" cy="205" stroke="none"/>
      <circle stroke-linecap="butt" clip-path="url(#clipPath2)" fill="none" r="5" cx="450" cy="205" stroke-miterlimit="1.45"/>
      <text stroke-linecap="butt" x="426.1611" y="209.5352" clip-path="url(#clipPath2)" font-family="sans-serif" stroke="none" stroke-miterlimit="1.45" xml:space="preserve">bus.675</text>
      <circle r="5" clip-path="url(#clipPath2)" cx="720" cy="270" stroke="none"/>
      <circle stroke-linecap="butt" clip-path="url(#clipPath2)" fill="none" r="5" cx="720" cy="270" stroke-miterlimit="1.45"/>
      <text stroke-linecap="butt" x="696.1611" y="274.5352" clip-path="url(#clipPath2)" font-family="sans-serif" stroke="none" stroke-miterlimit="1.45" xml:space="preserve">bus.702</text>
      <circle r="5" clip-path="url(#clipPath2)" cx="55" cy="435" stroke="none"/>
      <circle stroke-linecap="butt" clip-path="url(#clipPath2)" fill="none" r="5" cx="55" cy="435" stroke-miterlimit="1.45"/>
      <text stroke-linecap="butt" x="31.1611" y="439.5352" clip-path="url(#clipPath2)" font-family="sans-serif" stroke="none" stroke-miterlimit="1.45" xml:space="preserve">bus.650</text>
      <circle r="5" clip-path="url(#clipPath2)" cx="590" cy="330" stroke="none"/>
      <circle stroke-linecap="butt" clip-path="url(#clipPath2)" fill="none" r="5" cx="590" cy="330" stroke-miterlimit="1.45"/>
      <text stroke-linecap="butt" x="566.1611" y="334.5352" clip-path="url(#clipPath2)" font-family="sans-serif" stroke="none" stroke-miterlimit="1.45" xml:space="preserve">bus.700</text>
      <circle r="5" clip-path="url(#clipPath2)" cx="715" cy="140" stroke="none"/>
      <circle stroke-linecap="butt" clip-path="url(#clipPath2)" fill="none" r="5" cx="715" cy="140" stroke-miterlimit="1.45"/>
      <text stroke-linecap="butt" x="691.1611" y="144.5352" clip-path="url(#clipPath2)" font-family="sans-serif" stroke="none" stroke-miterlimit="1.45" xml:space="preserve">bus.801</text>
      <circle r="5" clip-path="url(#clipPath2)" cx="240" cy="435" stroke="none"/>
      <circle stroke-linecap="butt" clip-path="url(#clipPath2)" fill="none" r="5" cx="240" cy="435" stroke-miterlimit="1.45"/>
      <text stroke-linecap="butt" x="213.7588" y="439.5352" clip-path="url(#clipPath2)" font-family="sans-serif" stroke="none" stroke-miterlimit="1.45" xml:space="preserve">bus.rg60</text>
      <circle r="5" clip-path="url(#clipPath2)" cx="985" cy="75" stroke="none"/>
      <circle stroke-linecap="butt" clip-path="url(#clipPath2)" fill="none" r="5" cx="985" cy="75" stroke-miterlimit="1.45"/>
      <text stroke-linecap="butt" x="961.1611" y="79.5352" clip-path="url(#clipPath2)" font-family="sans-serif" stroke="none" stroke-miterlimit="1.45" xml:space="preserve">bus.611</text>
      <circle r="5" clip-path="url(#clipPath2)" cx="240" cy="260" stroke="none"/>
      <circle stroke-linecap="butt" clip-path="url(#clipPath2)" fill="none" r="5" cx="240" cy="260" stroke-miterlimit="1.45"/>
      <text stroke-linecap="butt" x="216.1611" y="264.5352" clip-path="url(#clipPath2)" font-family="sans-serif" stroke="none" stroke-miterlimit="1.45" xml:space="preserve">bus.645</text>
      <circle r="5" clip-path="url(#clipPath2)" cx="240" cy="380" stroke="none"/>
      <circle stroke-linecap="butt" clip-path="url(#clipPath2)" fill="none" r="5" cx="240" cy="380" stroke-miterlimit="1.45"/>
      <text stroke-linecap="butt" x="216.1611" y="384.5352" clip-path="url(#clipPath2)" font-family="sans-serif" stroke="none" stroke-miterlimit="1.45" xml:space="preserve">bus.632</text>
      <circle r="5" clip-path="url(#clipPath2)" cx="715" cy="115" stroke="none"/>
      <circle stroke-linecap="butt" clip-path="url(#clipPath2)" fill="none" r="5" cx="715" cy="115" stroke-miterlimit="1.45"/>
      <text stroke-linecap="butt" x="680.4443" y="119.5352" clip-path="url(#clipPath2)" font-family="sans-serif" stroke="none" stroke-miterlimit="1.45" xml:space="preserve">bus.675aux</text>
      <circle r="5" clip-path="url(#clipPath2)" cx="720" cy="235" stroke="none"/>
      <circle stroke-linecap="butt" clip-path="url(#clipPath2)" fill="none" r="5" cx="720" cy="235" stroke-miterlimit="1.45"/>
      <text stroke-linecap="butt" x="696.1611" y="239.5352" clip-path="url(#clipPath2)" font-family="sans-serif" stroke="none" stroke-miterlimit="1.45" xml:space="preserve">bus.703</text>
      <circle r="5" clip-path="url(#clipPath2)" cx="100" cy="380" stroke="none"/>
      <circle stroke-linecap="butt" clip-path="url(#clipPath2)" fill="none" r="5" cx="100" cy="380" stroke-miterlimit="1.45"/>
      <text stroke-linecap="butt" x="76.1611" y="384.5352" clip-path="url(#clipPath2)" font-family="sans-serif" stroke="none" stroke-miterlimit="1.45" xml:space="preserve">bus.633</text>
      <circle r="5" clip-path="url(#clipPath2)" cx="985" cy="50" stroke="none"/>
      <circle stroke-linecap="butt" clip-path="url(#clipPath2)" fill="none" r="5" cx="985" cy="50" stroke-miterlimit="1.45"/>
      <text stroke-linecap="butt" x="961.1611" y="54.5352" clip-path="url(#clipPath2)" font-family="sans-serif" stroke="none" stroke-miterlimit="1.45" xml:space="preserve">bus.684</text>
      <circle r="5" clip-path="url(#clipPath2)" cx="55" cy="410" stroke="none"/>
      <circle stroke-linecap="butt" clip-path="url(#clipPath2)" fill="none" r="5" cx="55" cy="410" stroke-miterlimit="1.45"/>
      <text stroke-linecap="butt" x="12.6455" y="414.5352" clip-path="url(#clipPath2)" font-family="sans-serif" stroke="none" stroke-miterlimit="1.45" xml:space="preserve">bus.sourcebus</text>
      <circle r="5" clip-path="url(#clipPath2)" cx="450" cy="100" stroke="none"/>
      <circle stroke-linecap="butt" clip-path="url(#clipPath2)" fill="none" r="5" cx="450" cy="100" stroke-miterlimit="1.45"/>
      <text stroke-linecap="butt" x="426.1611" y="104.5352" clip-path="url(#clipPath2)" font-family="sans-serif" stroke="none" stroke-miterlimit="1.45" xml:space="preserve">bus.692</text>
      <circle r="5" clip-path="url(#clipPath2)" cx="840" cy="405" stroke="none"/>
      <circle stroke-linecap="butt" clip-path="url(#clipPath2)" fill="none" r="5" cx="840" cy="405" stroke-miterlimit="1.45"/>
      <text stroke-linecap="butt" x="816.1611" y="409.5352" clip-path="url(#clipPath2)" font-family="sans-serif" stroke="none" stroke-miterlimit="1.45" xml:space="preserve">bus.670</text>
      <circle r="5" clip-path="url(#clipPath2)" cx="305" cy="260" stroke="none"/>
      <circle stroke-linecap="butt" clip-path="url(#clipPath2)" fill="none" r="5" cx="305" cy="260" stroke-miterlimit="1.45"/>
      <text stroke-linecap="butt" x="281.1611" y="264.5352" clip-path="url(#clipPath2)" font-family="sans-serif" stroke="none" stroke-miterlimit="1.45" xml:space="preserve">bus.646</text>
      <path fill="rgb(255,204,0)" d="M755 5 L785 5 L770 35 Z" clip-path="url(#clipPath2)" fill-rule="evenodd" stroke="none"/>
      <path fill="none" stroke-miterlimit="1.45" d="M755 5 L785 5 L770 35 Z" fill-rule="evenodd" clip-path="url(#clipPath2)" stroke-linecap="butt"/>
      <text stroke-linecap="butt" x="737.416" y="24.5352" clip-path="url(#clipPath2)" font-family="sans-serif" stroke="none" stroke-miterlimit="1.45" xml:space="preserve">load.671_1</text>
      <path fill="rgb(255,204,0)" d="M155 340 L185 340 L170 370 Z" clip-path="url(#clipPath2)" fill-rule="evenodd" stroke="none"/>
      <path fill="none" stroke-miterlimit="1.45" d="M155 340 L185 340 L170 370 Z" fill-rule="evenodd" clip-path="url(#clipPath2)" stroke-linecap="butt"/>
      <text stroke-linecap="butt" x="140.8965" y="359.5352" clip-path="url(#clipPath2)" font-family="sans-serif" stroke="none" stroke-miterlimit="1.45" xml:space="preserve">load.634a</text>
      <path fill="rgb(255,204,0)" d="M435 50 L465 50 L450 80 Z" clip-path="url(#clipPath2)" fill-rule="evenodd" stroke="none"/>
      <path fill="none" stroke-miterlimit="1.45" d="M435 50 L465 50 L450 80 Z" fill-rule="evenodd" clip-path="url(#clipPath2)" stroke-linecap="butt"/>
      <text stroke-linecap="butt" x="417.416" y="69.5352" clip-path="url(#clipPath2)" font-family="sans-serif" stroke="none" stroke-miterlimit="1.45" xml:space="preserve">load.692_3</text>
      <path fill="rgb(255,204,0)" d="M360 190 L390 190 L375 220 Z" clip-path="url(#clipPath2)" fill-rule="evenodd" stroke="none"/>
      <path fill="none" stroke-miterlimit="1.45" d="M360 190 L390 190 L375 220 Z" fill-rule="evenodd" clip-path="url(#clipPath2)" stroke-linecap="butt"/>
      <text stroke-linecap="butt" x="345.4336" y="209.5352" clip-path="url(#clipPath2)" font-family="sans-serif" stroke="none" stroke-miterlimit="1.45" xml:space="preserve">load.675b</text>
      <path fill="rgb(255,204,0)" d="M435 220 L465 220 L450 250 Z" clip-path="url(#clipPath2)" fill-rule="evenodd" stroke="none"/>
      <path fill="none" stroke-miterlimit="1.45" d="M435 220 L465 220 L450 250 Z" fill-rule="evenodd" clip-path="url(#clipPath2)" stroke-linecap="butt"/>
      <text stroke-linecap="butt" x="420.8965" y="239.5352" clip-path="url(#clipPath2)" font-family="sans-serif" stroke="none" stroke-miterlimit="1.45" xml:space="preserve">load.675a</text>
      <path fill="rgb(255,204,0)" d="M1050.0001 65 L1080.0001 65 L1065.0001 95 Z" clip-path="url(#clipPath2)" fill-rule="evenodd" stroke="none"/>
      <path fill="none" stroke-miterlimit="1.45" d="M1050.0001 65 L1080.0001 65 L1065.0001 95 Z" fill-rule="evenodd" clip-path="url(#clipPath2)" stroke-linecap="butt"/>
      <text stroke-linecap="butt" x="1039.21" y="84.5352" clip-path="url(#clipPath2)" font-family="sans-serif" stroke="none" stroke-miterlimit="1.45" xml:space="preserve">load.652</text>
      <path fill="rgb(255,204,0)" d="M365 85 L395 85 L380 115 Z" clip-path="url(#clipPath2)" fill-rule="evenodd" stroke="none"/>
      <path fill="none" stroke-miterlimit="1.45" d="M365 85 L395 85 L380 115 Z" fill-rule="evenodd" clip-path="url(#clipPath2)" stroke-linecap="butt"/>
      <text stroke-linecap="butt" x="347.416" y="104.5352" clip-path="url(#clipPath2)" font-family="sans-serif" stroke="none" stroke-miterlimit="1.45" xml:space="preserve">load.692_1</text>
      <path fill="rgb(255,204,0)" d="M639.9999 290 L669.9999 290 L654.9999 320 Z" clip-path="url(#clipPath2)" fill-rule="evenodd" stroke="none"/>
      <path fill="none" stroke-miterlimit="1.45" d="M639.9999 290 L669.9999 290 L654.9999 320 Z" fill-rule="evenodd" clip-path="url(#clipPath2)" stroke-linecap="butt"/>
      <text stroke-linecap="butt" x="629.21" y="309.5352" clip-path="url(#clipPath2)" font-family="sans-serif" stroke="none" stroke-miterlimit="1.45" xml:space="preserve">load.701</text>
      <path fill="rgb(255,204,0)" d="M680 35 L710 35 L695 65 Z" clip-path="url(#clipPath2)" fill-rule="evenodd" stroke="none"/>
      <path fill="none" stroke-miterlimit="1.45" d="M680 35 L710 35 L695 65 Z" fill-rule="evenodd" clip-path="url(#clipPath2)" stroke-linecap="butt"/>
      <text stroke-linecap="butt" x="662.416" y="54.5352" clip-path="url(#clipPath2)" font-family="sans-serif" stroke="none" stroke-miterlimit="1.45" xml:space="preserve">load.671_3</text>
      <path fill="rgb(255,204,0)" d="M639.9999 255 L669.9999 255 L654.9999 285 Z" clip-path="url(#clipPath2)" fill-rule="evenodd" stroke="none"/>
      <path fill="none" stroke-miterlimit="1.45" d="M639.9999 255 L669.9999 255 L654.9999 285 Z" fill-rule="evenodd" clip-path="url(#clipPath2)" stroke-linecap="butt"/>
      <text stroke-linecap="butt" x="629.21" y="274.5352" clip-path="url(#clipPath2)" font-family="sans-serif" stroke="none" stroke-miterlimit="1.45" xml:space="preserve">load.702</text>
      <path fill="rgb(255,204,0)" d="M290 280 L320 280 L305 310 Z" clip-path="url(#clipPath2)" fill-rule="evenodd" stroke="none"/>
      <path fill="none" stroke-miterlimit="1.45" d="M290 280 L320 280 L305 310 Z" fill-rule="evenodd" clip-path="url(#clipPath2)" stroke-linecap="butt"/>
      <text stroke-linecap="butt" x="272.416" y="299.5352" clip-path="url(#clipPath2)" font-family="sans-serif" stroke="none" stroke-miterlimit="1.45" xml:space="preserve">load.646_3</text>
      <path fill="rgb(255,204,0)" d="M574.9999 285 L604.9999 285 L589.9999 315 Z" clip-path="url(#clipPath2)" fill-rule="evenodd" stroke="none"/>
      <path fill="none" stroke-miterlimit="1.45" d="M574.9999 285 L604.9999 285 L589.9999 315 Z" fill-rule="evenodd" clip-path="url(#clipPath2)" stroke-linecap="butt"/>
      <text stroke-linecap="butt" x="564.21" y="304.5352" clip-path="url(#clipPath2)" font-family="sans-serif" stroke="none" stroke-miterlimit="1.45" xml:space="preserve">load.700</text>
      <path fill="rgb(255,204,0)" d="M594.9999 125 L625 125 L609.9999 155 Z" clip-path="url(#clipPath2)" fill-rule="evenodd" stroke="none"/>
      <path fill="none" stroke-miterlimit="1.45" d="M594.9999 125 L625 125 L609.9999 155 Z" fill-rule="evenodd" clip-path="url(#clipPath2)" stroke-linecap="butt"/>
      <text stroke-linecap="butt" x="584.21" y="144.5352" clip-path="url(#clipPath2)" font-family="sans-serif" stroke="none" stroke-miterlimit="1.45" xml:space="preserve">load.801</text>
      <path fill="rgb(255,204,0)" d="M755 390 L785 390 L770 420 Z" clip-path="url(#clipPath2)" fill-rule="evenodd" stroke="none"/>
      <path fill="none" stroke-miterlimit="1.45" d="M755 390 L785 390 L770 420 Z" fill-rule="evenodd" clip-path="url(#clipPath2)" stroke-linecap="butt"/>
      <text stroke-linecap="butt" x="741.1367" y="409.5352" clip-path="url(#clipPath2)" font-family="sans-serif" stroke="none" stroke-miterlimit="1.45" xml:space="preserve">load.670c</text>
      <path fill="rgb(255,204,0)" d="M890 60 L919.9999 60 L904.9999 90 Z" clip-path="url(#clipPath2)" fill-rule="evenodd" stroke="none"/>
      <path fill="none" stroke-miterlimit="1.45" d="M890 60 L919.9999 60 L904.9999 90 Z" fill-rule="evenodd" clip-path="url(#clipPath2)" stroke-linecap="butt"/>
      <text stroke-linecap="butt" x="879.21" y="79.5352" clip-path="url(#clipPath2)" font-family="sans-serif" stroke="none" stroke-miterlimit="1.45" xml:space="preserve">load.611</text>
      <path fill="rgb(255,204,0)" d="M225 215 L255 215 L240 245 Z" clip-path="url(#clipPath2)" fill-rule="evenodd" stroke="none"/>
      <path fill="none" stroke-miterlimit="1.45" d="M225 215 L255 215 L240 245 Z" fill-rule="evenodd" clip-path="url(#clipPath2)" stroke-linecap="butt"/>
      <text stroke-linecap="butt" x="214.21" y="234.5352" clip-path="url(#clipPath2)" font-family="sans-serif" stroke="none" stroke-miterlimit="1.45" xml:space="preserve">load.645</text>
      <path fill="rgb(255,204,0)" d="M85 305 L115 305 L100 335 Z" clip-path="url(#clipPath2)" fill-rule="evenodd" stroke="none"/>
      <path fill="none" stroke-miterlimit="1.45" d="M85 305 L115 305 L100 335 Z" fill-rule="evenodd" clip-path="url(#clipPath2)" stroke-linecap="butt"/>
      <text stroke-linecap="butt" x="71.1367" y="324.5352" clip-path="url(#clipPath2)" font-family="sans-serif" stroke="none" stroke-miterlimit="1.45" xml:space="preserve">load.634c</text>
      <path fill="rgb(255,204,0)" d="M755 65 L785 65 L770 95 Z" clip-path="url(#clipPath2)" fill-rule="evenodd" stroke="none"/>
      <path fill="none" stroke-miterlimit="1.45" d="M755 65 L785 65 L770 95 Z" fill-rule="evenodd" clip-path="url(#clipPath2)" stroke-linecap="butt"/>
      <text stroke-linecap="butt" x="737.416" y="84.5352" clip-path="url(#clipPath2)" font-family="sans-serif" stroke="none" stroke-miterlimit="1.45" xml:space="preserve">load.671_2</text>
      <path fill="rgb(255,204,0)" d="M705.0001 190 L735.0001 190 L720.0001 220 Z" clip-path="url(#clipPath2)" fill-rule="evenodd" stroke="none"/>
      <path fill="none" stroke-miterlimit="1.45" d="M705.0001 190 L735.0001 190 L720.0001 220 Z" fill-rule="evenodd" clip-path="url(#clipPath2)" stroke-linecap="butt"/>
      <text stroke-linecap="butt" x="694.21" y="209.5352" clip-path="url(#clipPath2)" font-family="sans-serif" stroke="none" stroke-miterlimit="1.45" xml:space="preserve">load.703</text>
      <path fill="rgb(255,204,0)" d="M824.9999 425 L854.9999 425 L839.9999 455 Z" clip-path="url(#clipPath2)" fill-rule="evenodd" stroke="none"/>
      <path fill="none" stroke-miterlimit="1.45" d="M824.9999 425 L854.9999 425 L839.9999 455 Z" fill-rule="evenodd" clip-path="url(#clipPath2)" stroke-linecap="butt"/>
      <text stroke-linecap="butt" x="810.4336" y="444.5352" clip-path="url(#clipPath2)" font-family="sans-serif" stroke="none" stroke-miterlimit="1.45" xml:space="preserve">load.670b</text>
      <path fill="rgb(255,204,0)" d="M15 340 L45 340 L30 370 Z" clip-path="url(#clipPath2)" fill-rule="evenodd" stroke="none"/>
      <path fill="none" stroke-miterlimit="1.45" d="M15 340 L45 340 L30 370 Z" fill-rule="evenodd" clip-path="url(#clipPath2)" stroke-linecap="butt"/>
      <text stroke-linecap="butt" x="0.4336" y="359.5352" clip-path="url(#clipPath2)" font-family="sans-serif" stroke="none" stroke-miterlimit="1.45" xml:space="preserve">load.634b</text>
      <path fill="rgb(255,204,0)" d="M510 190 L540.0001 190 L525 220 Z" clip-path="url(#clipPath2)" fill-rule="evenodd" stroke="none"/>
      <path fill="none" stroke-miterlimit="1.45" d="M510 190 L540.0001 190 L525 220 Z" fill-rule="evenodd" clip-path="url(#clipPath2)" stroke-linecap="butt"/>
      <text stroke-linecap="butt" x="496.1367" y="209.5352" clip-path="url(#clipPath2)" font-family="sans-serif" stroke="none" stroke-miterlimit="1.45" xml:space="preserve">load.675c</text>
      <path fill="rgb(255,204,0)" d="M894.9999 390 L925 390 L910 420 Z" clip-path="url(#clipPath2)" fill-rule="evenodd" stroke="none"/>
      <path fill="none" stroke-miterlimit="1.45" d="M894.9999 390 L925 390 L910 420 Z" fill-rule="evenodd" clip-path="url(#clipPath2)" stroke-linecap="butt"/>
      <text stroke-linecap="butt" x="880.8965" y="409.5352" clip-path="url(#clipPath2)" font-family="sans-serif" stroke="none" stroke-miterlimit="1.45" xml:space="preserve">load.670a</text>
      <path fill="rgb(255,204,0)" d="M360 245 L390 245 L375 275 Z" clip-path="url(#clipPath2)" fill-rule="evenodd" stroke="none"/>
      <path fill="none" stroke-miterlimit="1.45" d="M360 245 L390 245 L375 275 Z" fill-rule="evenodd" clip-path="url(#clipPath2)" stroke-linecap="butt"/>
      <text stroke-linecap="butt" x="342.416" y="264.5352" clip-path="url(#clipPath2)" font-family="sans-serif" stroke="none" stroke-miterlimit="1.45" xml:space="preserve">load.646_2</text>
      <path fill="rgb(255,153,204)" d="M530 155 L545 185 L514.9999 185 Z" clip-path="url(#clipPath2)" fill-rule="evenodd" stroke="none"/>
      <path fill="none" stroke-miterlimit="1.45" d="M530 155 L545 185 L514.9999 185 Z" fill-rule="evenodd" clip-path="url(#clipPath2)" stroke-linecap="butt"/>
      <text stroke-linecap="butt" x="487.4756" y="174.5352" clip-path="url(#clipPath2)" font-family="sans-serif" stroke="none" stroke-miterlimit="1.45" xml:space="preserve">capacitor.cap1</text>
      <path fill="rgb(255,153,204)" d="M984.9999 90 L999.9999 120 L970 120 Z" clip-path="url(#clipPath2)" fill-rule="evenodd" stroke="none"/>
      <path fill="none" stroke-miterlimit="1.45" d="M984.9999 90 L999.9999 120 L970 120 Z" fill-rule="evenodd" clip-path="url(#clipPath2)" stroke-linecap="butt"/>
      <text stroke-linecap="butt" x="942.4756" y="109.5352" clip-path="url(#clipPath2)" font-family="sans-serif" stroke="none" stroke-miterlimit="1.45" xml:space="preserve">capacitor.cap2</text>
      <circle fill="aqua" r="15" clip-path="url(#clipPath2)" cx="530" cy="135" stroke="none"/>
      <circle stroke-linecap="butt" clip-path="url(#clipPath2)" fill="none" r="15" cx="530" cy="135" stroke-miterlimit="1.45"/>
      <text stroke-linecap="butt" x="488.416" y="139.5352" clip-path="url(#clipPath2)" font-family="sans-serif" stroke="none" stroke-miterlimit="1.45" xml:space="preserve">generator.675</text>
      <path fill="aqua" d="M295 315 L322 315 L325 345 L298 345 Z" clip-path="url(#clipPath2)" fill-rule="evenodd" stroke="none"/>
      <path fill="none" stroke-miterlimit="1.45" d="M295 315 L322 315 L325 345 L298 345 Z" fill-rule="evenodd" clip-path="url(#clipPath2)" stroke-linecap="butt"/>
      <text stroke-linecap="butt" x="253.9844" y="334.5352" clip-path="url(#clipPath2)" font-family="sans-serif" stroke="none" stroke-miterlimit="1.45" xml:space="preserve">pvsystem.pv_mg1b</text>
      <path fill="aqua" d="M610 220 L637 220 L640 250 L613 250 Z" clip-path="url(#clipPath2)" fill-rule="evenodd" stroke="none"/>
      <path fill="none" stroke-miterlimit="1.45" d="M610 220 L637 220 L640 250 L613 250 Z" fill-rule="evenodd" clip-path="url(#clipPath2)" stroke-linecap="butt"/>
      <text stroke-linecap="butt" x="569.4473" y="239.5352" clip-path="url(#clipPath2)" font-family="sans-serif" stroke="none" stroke-miterlimit="1.45" xml:space="preserve">pvsystem.pv_mg1a</text>
      <path fill="aqua" d="M430 345 L460 345 L452.5 375 L437.5 375 Z" clip-path="url(#clipPath2)" fill-rule="evenodd" stroke="none"/>
      <path fill="none" stroke-miterlimit="1.45" d="M430 345 L460 345 L452.5 375 L437.5 375 Z" fill-rule="evenodd" clip-path="url(#clipPath2)" stroke-linecap="butt"/>
      <text stroke-linecap="butt" x="381.2998" y="364.5352" clip-path="url(#clipPath2)" font-family="sans-serif" stroke="none" stroke-miterlimit="1.45" xml:space="preserve">storage.battery_mg1a</text>
      <path fill="aqua" d="M700.0001 155 L730.0001 155 L722.5001 185 L707.5001 185 Z" clip-path="url(#clipPath2)" fill-rule="evenodd" stroke="none"/>
      <path fill="none" stroke-miterlimit="1.45" d="M700.0001 155 L730.0001 155 L722.5001 185 L707.5001 185 Z" fill-rule="evenodd" clip-path="url(#clipPath2)" stroke-linecap="butt"/>
      <text stroke-linecap="butt" x="651.54" y="174.5352" clip-path="url(#clipPath2)" font-family="sans-serif" stroke="none" stroke-miterlimit="1.45" xml:space="preserve">storage.battery_mg1c</text>
      <path fill="aqua" d="M574.9999 345 L604.9999 345 L597.4999 375 L582.4999 375 Z" clip-path="url(#clipPath2)" fill-rule="evenodd" stroke="none"/>
      <path fill="none" stroke-miterlimit="1.45" d="M574.9999 345 L604.9999 345 L597.4999 375 L582.4999 375 Z" fill-rule="evenodd" clip-path="url(#clipPath2)" stroke-linecap="butt"/>
      <text stroke-linecap="butt" x="525.8369" y="364.5352" clip-path="url(#clipPath2)" font-family="sans-serif" stroke="none" stroke-miterlimit="1.45" xml:space="preserve">storage.battery_mg1b</text>
      <path fill="red" d="M155 425 L158.4442 418.3149 L165.6066 420.6066 L163.3149 413.4442 L170 410 L163.3149 406.5558 L165.6066 399.3934 L158.4442 401.6851 L155 395 L151.5558 401.6851 L144.3934 399.3934 L146.6851 406.5558 L140 410 L146.6851 413.4442 L144.3934 420.6066 L151.5558 418.3149 Z" clip-path="url(#clipPath2)" fill-rule="evenodd" stroke="none"/>
      <path fill="none" stroke-miterlimit="1.45" d="M155 425 L158.4442 418.3149 L165.6066 420.6066 L163.3149 413.4442 L170 410 L163.3149 406.5558 L165.6066 399.3934 L158.4442 401.6851 L155 395 L151.5558 401.6851 L144.3934 399.3934 L146.6851 406.5558 L140 410 L146.6851 413.4442 L144.3934 420.6066 L151.5558 418.3149 Z" fill-rule="evenodd" clip-path="url(#clipPath2)" stroke-linecap="butt"/>
      <text stroke-linecap="butt" x="111.3184" y="414.5352" clip-path="url(#clipPath2)" font-family="sans-serif" stroke="none" stroke-miterlimit="1.45" xml:space="preserve">vsource.source</text>
    </g>
  </g>
</svg>
