<?xml version="1.0" encoding="UTF-8"?><svg xmlns="http://www.w3.org/2000/svg" xmlns:xlink="http://www.w3.org/1999/xlink" fill-opacity="1" color-rendering="auto" color-interpolation="auto" text-rendering="auto" stroke="black" stroke-linecap="square" width="1825" stroke-miterlimit="10" shape-rendering="auto" stroke-opacity="1" fill="black" stroke-dasharray="none" font-weight="normal" stroke-width="1" height="615" font-family="'Dialog'" font-style="normal" stroke-linejoin="miter" font-size="12px" stroke-dashoffset="0" image-rendering="auto">
  <!--Generated by ySVG 2.5-->
  <defs id="genericDefs"/>
  <g>
    <defs id="defs1">
      <clipPath clipPathUnits="userSpaceOnUse" id="clipPath1">
        <path d="M0 0 L1825 0 L1825 615 L0 615 L0 0 Z"/>
      </clipPath>
      <clipPath clipPathUnits="userSpaceOnUse" id="clipPath2">
        <path d="M-15 -15 L1810 -15 L1810 600 L-15 600 L-15 -15 Z"/>
      </clipPath>
    </defs>
    <g fill="white" text-rendering="geometricPrecision" shape-rendering="geometricPrecision" transform="translate(15,15)" stroke="white">
      <rect x="-15" width="1825" height="615" y="-15" clip-path="url(#clipPath2)" stroke="none"/>
    </g>
    <g transform="matrix(1,0,0,1,15,15)" fill-opacity="0.149" fill="rgb(223,193,255)" text-rendering="geometricPrecision" shape-rendering="geometricPrecision" stroke="rgb(223,193,255)" stroke-opacity="0.149">
      <rect x="125" width="290" height="105" y="380" clip-path="url(#clipPath2)" stroke="none"/>
    </g>
    <g fill="rgb(64,64,64)" text-rendering="geometricPrecision" shape-rendering="geometricPrecision" transform="matrix(1,0,0,1,15,15)" stroke="rgb(64,64,64)">
      <rect x="125" width="290" height="4" y="380" clip-path="url(#clipPath2)" stroke="none"/>
    </g>
    <g transform="matrix(1,0,0,1,15,15)" fill-opacity="0.149" fill="rgb(255,255,255)" text-rendering="geometricPrecision" shape-rendering="geometricPrecision" stroke="rgb(255,255,255)" stroke-opacity="0.149">
      <rect x="125" width="1" height="105" y="380" clip-path="url(#clipPath2)" stroke="none"/>
      <rect x="126" width="288" height="1" y="380" clip-path="url(#clipPath2)" stroke="none"/>
      <rect x="126" y="484" clip-path="url(#clipPath2)" fill="rgb(156,135,178)" width="289" height="1" stroke="none"/>
      <rect x="414" y="380" clip-path="url(#clipPath2)" fill="rgb(156,135,178)" width="1" height="104" stroke="none"/>
    </g>
    <g stroke-linecap="butt" transform="matrix(1,0,0,1,15,15)" fill="rgb(51,153,102)" text-rendering="geometricPrecision" shape-rendering="geometricPrecision" stroke="rgb(51,153,102)" stroke-width="2" stroke-miterlimit="1.45">
      <path fill="none" d="M360 450 L305 450" clip-path="url(#clipPath2)"/>
    </g>
    <g stroke-linecap="round" transform="matrix(1,0,0,1,15,15)" stroke-dashoffset="2" text-rendering="geometricPrecision" shape-rendering="geometricPrecision" stroke-dasharray="0,8" stroke-width="2" stroke-miterlimit="1.45">
      <path fill="none" d="M300 435 L300 445" clip-path="url(#clipPath2)"/>
      <path fill="none" d="M218.5061 450 L295 450" clip-path="url(#clipPath2)"/>
      <path fill="none" d="M365 435 L365 445" clip-path="url(#clipPath2)"/>
    </g>
    <g text-rendering="geometricPrecision" shape-rendering="geometricPrecision" transform="matrix(1,0,0,1,15,15)">
      <circle r="5" clip-path="url(#clipPath2)" cx="300" cy="450" stroke="none"/>
      <circle stroke-linecap="butt" clip-path="url(#clipPath2)" fill="none" r="5" cx="300" cy="450" stroke-miterlimit="1.45"/>
      <text stroke-linecap="butt" x="276.1611" y="454.5352" clip-path="url(#clipPath2)" font-family="sans-serif" stroke="none" stroke-miterlimit="1.45" xml:space="preserve">bus.703</text>
      <circle r="5" clip-path="url(#clipPath2)" cx="365" cy="450" stroke="none"/>
      <circle stroke-linecap="butt" clip-path="url(#clipPath2)" fill="none" r="5" cx="365" cy="450" stroke-miterlimit="1.45"/>
      <text stroke-linecap="butt" x="341.1611" y="454.5352" clip-path="url(#clipPath2)" font-family="sans-serif" stroke="none" stroke-miterlimit="1.45" xml:space="preserve">bus.702</text>
      <path fill="rgb(255,204,0)" d="M350 405 L380 405 L365 435 Z" clip-path="url(#clipPath2)" fill-rule="evenodd" stroke="none"/>
      <path fill="none" stroke-miterlimit="1.45" d="M350 405 L380 405 L365 435 Z" fill-rule="evenodd" clip-path="url(#clipPath2)" stroke-linecap="butt"/>
      <text stroke-linecap="butt" x="339.21" y="424.5352" clip-path="url(#clipPath2)" font-family="sans-serif" stroke="none" stroke-miterlimit="1.45" xml:space="preserve">load.702</text>
      <path fill="rgb(255,204,0)" d="M285 405 L315 405 L300 435 Z" clip-path="url(#clipPath2)" fill-rule="evenodd" stroke="none"/>
      <path fill="none" stroke-miterlimit="1.45" d="M285 405 L315 405 L300 435 Z" fill-rule="evenodd" clip-path="url(#clipPath2)" stroke-linecap="butt"/>
      <text stroke-linecap="butt" x="274.21" y="424.5352" clip-path="url(#clipPath2)" font-family="sans-serif" stroke="none" stroke-miterlimit="1.45" xml:space="preserve">load.703</text>
      <path fill="aqua" d="M190 435 L217 435 L220 465 L193 465 Z" clip-path="url(#clipPath2)" fill-rule="evenodd" stroke="none"/>
      <path fill="none" stroke-miterlimit="1.45" d="M190 435 L217 435 L220 465 L193 465 Z" fill-rule="evenodd" clip-path="url(#clipPath2)" stroke-linecap="butt"/>
      <text stroke-linecap="butt" x="149.4473" y="454.5352" clip-path="url(#clipPath2)" font-family="sans-serif" stroke="none" stroke-miterlimit="1.45" xml:space="preserve">pvsystem.pv_mg1a</text>
    </g>
    <g transform="matrix(1,0,0,1,15,15)" fill-opacity="0.149" fill="rgb(223,193,255)" text-rendering="geometricPrecision" shape-rendering="geometricPrecision" stroke="rgb(223,193,255)" stroke-opacity="0.149">
      <rect x="1460" width="335" height="550" y="35" clip-path="url(#clipPath2)" stroke="none"/>
    </g>
    <g fill="rgb(64,64,64)" text-rendering="geometricPrecision" shape-rendering="geometricPrecision" transform="matrix(1,0,0,1,15,15)" stroke="rgb(64,64,64)">
      <rect x="1460" width="335" height="4" y="35" clip-path="url(#clipPath2)" stroke="none"/>
    </g>
    <g transform="matrix(1,0,0,1,15,15)" fill-opacity="0.149" fill="rgb(255,255,255)" text-rendering="geometricPrecision" shape-rendering="geometricPrecision" stroke="rgb(255,255,255)" stroke-opacity="0.149">
      <rect x="1460" width="1" height="550" y="35" clip-path="url(#clipPath2)" stroke="none"/>
      <rect x="1461" width="333" height="1" y="35" clip-path="url(#clipPath2)" stroke="none"/>
      <rect x="1461" y="584" clip-path="url(#clipPath2)" fill="rgb(156,135,178)" width="334" height="1" stroke="none"/>
      <rect x="1794" y="35" clip-path="url(#clipPath2)" fill="rgb(156,135,178)" width="1" height="549" stroke="none"/>
    </g>
    <g stroke-linecap="round" transform="matrix(1,0,0,1,15,15)" stroke-dashoffset="2" text-rendering="geometricPrecision" shape-rendering="geometricPrecision" stroke-dasharray="0,8" stroke-width="2" stroke-miterlimit="1.45">
      <path fill="none" d="M1605 375 L1605 385" clip-path="url(#clipPath2)"/>
      <path fill="none" d="M1672.4688 390 L1610 390" clip-path="url(#clipPath2)"/>
    </g>
    <g stroke-linecap="butt" transform="matrix(1,0,0,1,15,15)" fill="rgb(51,153,102)" text-rendering="geometricPrecision" shape-rendering="geometricPrecision" stroke="rgb(51,153,102)" stroke-width="2" stroke-miterlimit="1.45">
      <path fill="none" d="M1600 425 L1480 425 L1480 565 L1735 565 L1735 75" clip-path="url(#clipPath2)"/>
      <path fill="none" d="M1605 395 L1605 420" clip-path="url(#clipPath2)"/>
    </g>
    <g stroke-linecap="round" transform="matrix(1,0,0,1,15,15)" stroke-dashoffset="2" text-rendering="geometricPrecision" shape-rendering="geometricPrecision" stroke-dasharray="0,8" stroke-width="2" stroke-miterlimit="1.45">
      <path fill="none" d="M1542.4993 455 L1605 455 L1605 430" clip-path="url(#clipPath2)"/>
      <path fill="none" d="M1542.4993 490 L1605 490 L1605 430" clip-path="url(#clipPath2)"/>
      <path fill="none" d="M1527.5066 525 L1605 525 L1605 430" clip-path="url(#clipPath2)"/>
      <path fill="none" d="M1605 530 L1605 430" clip-path="url(#clipPath2)"/>
      <path fill="none" d="M1670 425 L1610 425" clip-path="url(#clipPath2)"/>
    </g>
    <g text-rendering="geometricPrecision" shape-rendering="geometricPrecision" transform="matrix(1,0,0,1,15,15)">
      <circle r="5" clip-path="url(#clipPath2)" cx="1605" cy="390" stroke="none"/>
      <circle stroke-linecap="butt" clip-path="url(#clipPath2)" fill="none" r="5" cx="1605" cy="390" stroke-miterlimit="1.45"/>
      <text stroke-linecap="butt" x="1581.1611" y="394.5352" clip-path="url(#clipPath2)" font-family="sans-serif" stroke="none" stroke-miterlimit="1.45" xml:space="preserve">bus.692</text>
      <circle r="5" clip-path="url(#clipPath2)" cx="1735" cy="70" stroke="none"/>
      <circle stroke-linecap="butt" clip-path="url(#clipPath2)" fill="none" r="5" cx="1735" cy="70" stroke-miterlimit="1.45"/>
      <text stroke-linecap="butt" x="1700.4443" y="74.5352" clip-path="url(#clipPath2)" font-family="sans-serif" stroke="none" stroke-miterlimit="1.45" xml:space="preserve">bus.675aux</text>
      <circle r="5" clip-path="url(#clipPath2)" cx="1605" cy="425" stroke="none"/>
      <circle stroke-linecap="butt" clip-path="url(#clipPath2)" fill="none" r="5" cx="1605" cy="425" stroke-miterlimit="1.45"/>
      <text stroke-linecap="butt" x="1581.1611" y="429.5352" clip-path="url(#clipPath2)" font-family="sans-serif" stroke="none" stroke-miterlimit="1.45" xml:space="preserve">bus.675</text>
      <path fill="rgb(255,204,0)" d="M1590 345 L1620 345 L1605 375 Z" clip-path="url(#clipPath2)" fill-rule="evenodd" stroke="none"/>
      <path fill="none" stroke-miterlimit="1.45" d="M1590 345 L1620 345 L1605 375 Z" fill-rule="evenodd" clip-path="url(#clipPath2)" stroke-linecap="butt"/>
      <text stroke-linecap="butt" x="1572.416" y="364.5352" clip-path="url(#clipPath2)" font-family="sans-serif" stroke="none" stroke-miterlimit="1.45" xml:space="preserve">load.692_3</text>
      <path fill="rgb(255,204,0)" d="M1519.9999 440 L1549.9999 440 L1534.9999 469.9999 Z" clip-path="url(#clipPath2)" fill-rule="evenodd" stroke="none"/>
      <path fill="none" stroke-miterlimit="1.45" d="M1519.9999 440 L1549.9999 440 L1534.9999 469.9999 Z" fill-rule="evenodd" clip-path="url(#clipPath2)" stroke-linecap="butt"/>
      <text stroke-linecap="butt" x="1505.4336" y="459.5352" clip-path="url(#clipPath2)" font-family="sans-serif" stroke="none" stroke-miterlimit="1.45" xml:space="preserve">load.675b</text>
      <path fill="rgb(255,204,0)" d="M1519.9999 475 L1549.9999 475 L1534.9999 505 Z" clip-path="url(#clipPath2)" fill-rule="evenodd" stroke="none"/>
      <path fill="none" stroke-miterlimit="1.45" d="M1519.9999 475 L1549.9999 475 L1534.9999 505 Z" fill-rule="evenodd" clip-path="url(#clipPath2)" stroke-linecap="butt"/>
      <text stroke-linecap="butt" x="1505.8965" y="494.5352" clip-path="url(#clipPath2)" font-family="sans-serif" stroke="none" stroke-miterlimit="1.45" xml:space="preserve">load.675a</text>
      <path fill="rgb(255,204,0)" d="M1664.9999 375 L1695 375 L1679.9999 405 Z" clip-path="url(#clipPath2)" fill-rule="evenodd" stroke="none"/>
      <path fill="none" stroke-miterlimit="1.45" d="M1664.9999 375 L1695 375 L1679.9999 405 Z" fill-rule="evenodd" clip-path="url(#clipPath2)" stroke-linecap="butt"/>
      <text stroke-linecap="butt" x="1647.416" y="394.5352" clip-path="url(#clipPath2)" font-family="sans-serif" stroke="none" stroke-miterlimit="1.45" xml:space="preserve">load.692_1</text>
      <path fill="rgb(255,204,0)" d="M1505 510 L1535 510 L1520 540.0001 Z" clip-path="url(#clipPath2)" fill-rule="evenodd" stroke="none"/>
      <path fill="none" stroke-miterlimit="1.45" d="M1505 510 L1535 510 L1520 540.0001 Z" fill-rule="evenodd" clip-path="url(#clipPath2)" stroke-linecap="butt"/>
      <text stroke-linecap="butt" x="1491.1367" y="529.5352" clip-path="url(#clipPath2)" font-family="sans-serif" stroke="none" stroke-miterlimit="1.45" xml:space="preserve">load.675c</text>
      <path fill="rgb(255,153,204)" d="M1605 530 L1620 560 L1590 560 Z" clip-path="url(#clipPath2)" fill-rule="evenodd" stroke="none"/>
      <path fill="none" stroke-miterlimit="1.45" d="M1605 530 L1620 560 L1590 560 Z" fill-rule="evenodd" clip-path="url(#clipPath2)" stroke-linecap="butt"/>
      <text stroke-linecap="butt" x="1562.4756" y="549.5352" clip-path="url(#clipPath2)" font-family="sans-serif" stroke="none" stroke-miterlimit="1.45" xml:space="preserve">capacitor.cap1</text>
      <circle fill="aqua" r="15" clip-path="url(#clipPath2)" cx="1685" cy="425" stroke="none"/>
      <circle stroke-linecap="butt" clip-path="url(#clipPath2)" fill="none" r="15" cx="1685" cy="425" stroke-miterlimit="1.45"/>
      <text stroke-linecap="butt" x="1643.416" y="429.5352" clip-path="url(#clipPath2)" font-family="sans-serif" stroke="none" stroke-miterlimit="1.45" xml:space="preserve">generator.675</text>
    </g>
    <g transform="matrix(1,0,0,1,15,15)" fill-opacity="0.149" fill="rgb(223,193,255)" text-rendering="geometricPrecision" shape-rendering="geometricPrecision" stroke="rgb(223,193,255)" stroke-opacity="0.149">
      <rect x="420" width="370" height="185" y="300" clip-path="url(#clipPath2)" stroke="none"/>
    </g>
    <g fill="rgb(64,64,64)" text-rendering="geometricPrecision" shape-rendering="geometricPrecision" transform="matrix(1,0,0,1,15,15)" stroke="rgb(64,64,64)">
      <rect x="420" width="370" height="4" y="300" clip-path="url(#clipPath2)" stroke="none"/>
    </g>
    <g transform="matrix(1,0,0,1,15,15)" fill-opacity="0.149" fill="rgb(255,255,255)" text-rendering="geometricPrecision" shape-rendering="geometricPrecision" stroke="rgb(255,255,255)" stroke-opacity="0.149">
      <rect x="420" width="1" height="185" y="300" clip-path="url(#clipPath2)" stroke="none"/>
      <rect x="421" width="368" height="1" y="300" clip-path="url(#clipPath2)" stroke="none"/>
      <rect x="421" y="484" clip-path="url(#clipPath2)" fill="rgb(156,135,178)" width="369" height="1" stroke="none"/>
      <rect x="789" y="300" clip-path="url(#clipPath2)" fill="rgb(156,135,178)" width="1" height="184" stroke="none"/>
    </g>
    <g stroke-linecap="round" transform="matrix(1,0,0,1,15,15)" stroke-dashoffset="2" text-rendering="geometricPrecision" shape-rendering="geometricPrecision" stroke-dasharray="0,8" stroke-width="2" stroke-miterlimit="1.45">
      <path fill="none" d="M672.4688 410 L615 410 L615 380" clip-path="url(#clipPath2)"/>
      <path fill="none" d="M696.4688 375 L620 375" clip-path="url(#clipPath2)"/>
      <path fill="none" d="M615 355 L615 370" clip-path="url(#clipPath2)"/>
      <path fill="none" d="M521.2621 375 L610 375" clip-path="url(#clipPath2)"/>
    </g>
    <g stroke-linecap="butt" transform="matrix(1,0,0,1,15,15)" fill="rgb(51,153,102)" text-rendering="geometricPrecision" shape-rendering="geometricPrecision" stroke="rgb(51,153,102)" stroke-width="2" stroke-miterlimit="1.45">
      <path fill="none" d="M615 380 L615 445" clip-path="url(#clipPath2)"/>
    </g>
    <g stroke-linecap="round" transform="matrix(1,0,0,1,15,15)" stroke-dashoffset="2" text-rendering="geometricPrecision" shape-rendering="geometricPrecision" stroke-dasharray="0,8" stroke-width="2" stroke-miterlimit="1.45">
      <path fill="none" d="M672.4688 450 L620 450" clip-path="url(#clipPath2)"/>
    </g>
    <g stroke-linecap="butt" transform="matrix(1,0,0,1,15,15)" fill="rgb(51,153,102)" text-rendering="geometricPrecision" shape-rendering="geometricPrecision" stroke-dasharray="12,4" stroke="rgb(51,153,102)" stroke-width="2" stroke-miterlimit="1.45">
      <path fill="none" d="M610 450 L370 450" clip-path="url(#clipPath2)"/>
    </g>
    <g text-rendering="geometricPrecision" shape-rendering="geometricPrecision" transform="matrix(1,0,0,1,15,15)">
      <circle r="5" clip-path="url(#clipPath2)" cx="615" cy="375" stroke="none"/>
      <circle stroke-linecap="butt" clip-path="url(#clipPath2)" fill="none" r="5" cx="615" cy="375" stroke-miterlimit="1.45"/>
      <text stroke-linecap="butt" x="591.1611" y="379.5352" clip-path="url(#clipPath2)" font-family="sans-serif" stroke="none" stroke-miterlimit="1.45" xml:space="preserve">bus.700</text>
      <circle r="5" clip-path="url(#clipPath2)" cx="615" cy="450" stroke="none"/>
      <circle stroke-linecap="butt" clip-path="url(#clipPath2)" fill="none" r="5" cx="615" cy="450" stroke-miterlimit="1.45"/>
      <text stroke-linecap="butt" x="591.1611" y="454.5352" clip-path="url(#clipPath2)" font-family="sans-serif" stroke="none" stroke-miterlimit="1.45" xml:space="preserve">bus.701</text>
      <path fill="rgb(255,204,0)" d="M665 435 L695 435 L680 465 Z" clip-path="url(#clipPath2)" fill-rule="evenodd" stroke="none"/>
      <path fill="none" stroke-miterlimit="1.45" d="M665 435 L695 435 L680 465 Z" fill-rule="evenodd" clip-path="url(#clipPath2)" stroke-linecap="butt"/>
      <text stroke-linecap="butt" x="654.21" y="454.5352" clip-path="url(#clipPath2)" font-family="sans-serif" stroke="none" stroke-miterlimit="1.45" xml:space="preserve">load.701</text>
      <path fill="rgb(255,204,0)" d="M665 395 L695 395 L680 425 Z" clip-path="url(#clipPath2)" fill-rule="evenodd" stroke="none"/>
      <path fill="none" stroke-miterlimit="1.45" d="M665 395 L695 395 L680 425 Z" fill-rule="evenodd" clip-path="url(#clipPath2)" stroke-linecap="butt"/>
      <text stroke-linecap="butt" x="654.21" y="414.5352" clip-path="url(#clipPath2)" font-family="sans-serif" stroke="none" stroke-miterlimit="1.45" xml:space="preserve">load.700</text>
      <path fill="aqua" d="M695.0001 360 L722.0001 360 L725.0001 390 L698.0001 390 Z" clip-path="url(#clipPath2)" fill-rule="evenodd" stroke="none"/>
      <path fill="none" stroke-miterlimit="1.45" d="M695.0001 360 L722.0001 360 L725.0001 390 L698.0001 390 Z" fill-rule="evenodd" clip-path="url(#clipPath2)" stroke-linecap="butt"/>
      <text stroke-linecap="butt" x="653.9844" y="379.5352" clip-path="url(#clipPath2)" font-family="sans-serif" stroke="none" stroke-miterlimit="1.45" xml:space="preserve">pvsystem.pv_mg1b</text>
      <path fill="aqua" d="M600 325 L630 325 L622.5 355 L607.5 355 Z" clip-path="url(#clipPath2)" fill-rule="evenodd" stroke="none"/>
      <path fill="none" stroke-miterlimit="1.45" d="M600 325 L630 325 L622.5 355 L607.5 355 Z" fill-rule="evenodd" clip-path="url(#clipPath2)" stroke-linecap="butt"/>
      <text stroke-linecap="butt" x="551.2998" y="344.5352" clip-path="url(#clipPath2)" font-family="sans-serif" stroke="none" stroke-miterlimit="1.45" xml:space="preserve">storage.battery_mg1a</text>
      <path fill="aqua" d="M495 360 L525.0001 360 L517.5001 390 L502.5 390 Z" clip-path="url(#clipPath2)" fill-rule="evenodd" stroke="none"/>
      <path fill="none" stroke-miterlimit="1.45" d="M495 360 L525.0001 360 L517.5001 390 L502.5 390 Z" fill-rule="evenodd" clip-path="url(#clipPath2)" stroke-linecap="butt"/>
      <text stroke-linecap="butt" x="445.8369" y="379.5352" clip-path="url(#clipPath2)" font-family="sans-serif" stroke="none" stroke-miterlimit="1.45" xml:space="preserve">storage.battery_mg1b</text>
    </g>
    <g transform="matrix(1,0,0,1,15,15)" fill-opacity="0.149" fill="rgb(223,193,255)" text-rendering="geometricPrecision" shape-rendering="geometricPrecision" stroke="rgb(223,193,255)" stroke-opacity="0.149">
      <rect x="795" width="660" height="410" y="75" clip-path="url(#clipPath2)" stroke="none"/>
    </g>
    <g fill="rgb(64,64,64)" text-rendering="geometricPrecision" shape-rendering="geometricPrecision" transform="matrix(1,0,0,1,15,15)" stroke="rgb(64,64,64)">
      <rect x="795" width="660" height="4" y="75" clip-path="url(#clipPath2)" stroke="none"/>
    </g>
    <g transform="matrix(1,0,0,1,15,15)" fill-opacity="0.149" fill="rgb(255,255,255)" text-rendering="geometricPrecision" shape-rendering="geometricPrecision" stroke="rgb(255,255,255)" stroke-opacity="0.149">
      <rect x="795" width="1" height="410" y="75" clip-path="url(#clipPath2)" stroke="none"/>
      <rect x="796" width="658" height="1" y="75" clip-path="url(#clipPath2)" stroke="none"/>
      <rect x="796" y="484" clip-path="url(#clipPath2)" fill="rgb(156,135,178)" width="659" height="1" stroke="none"/>
      <rect x="1454" y="75" clip-path="url(#clipPath2)" fill="rgb(156,135,178)" width="1" height="409" stroke="none"/>
    </g>
    <g stroke-linecap="butt" transform="matrix(1,0,0,1,15,15)" fill="rgb(51,153,102)" text-rendering="geometricPrecision" shape-rendering="geometricPrecision" stroke="rgb(51,153,102)" stroke-width="2" stroke-miterlimit="1.45">
      <path fill="none" d="M1055 410 L1160 410 L1160 290" clip-path="url(#clipPath2)"/>
    </g>
    <g stroke-linecap="round" transform="matrix(1,0,0,1,15,15)" stroke-dashoffset="2" text-rendering="geometricPrecision" shape-rendering="geometricPrecision" stroke-dasharray="0,8" stroke-width="2" stroke-miterlimit="1.45">
      <path fill="none" d="M1160 265 L1160 280" clip-path="url(#clipPath2)"/>
      <path fill="none" d="M1097.4968 285 L1155 285" clip-path="url(#clipPath2)"/>
      <path fill="none" d="M1097.4993 320 L1160 320 L1160 290" clip-path="url(#clipPath2)"/>
    </g>
    <g stroke-linecap="butt" transform="matrix(1,0,0,1,15,15)" fill="rgb(51,153,102)" text-rendering="geometricPrecision" shape-rendering="geometricPrecision" stroke-dasharray="12,4" stroke="rgb(51,153,102)" stroke-width="2" stroke-miterlimit="1.45">
      <path fill="none" d="M1160 290 L1160 390 L1600 390" clip-path="url(#clipPath2)"/>
      <path fill="none" stroke-dasharray="none" d="M1165 285 L1225 285 L1225 305" clip-path="url(#clipPath2)"/>
      <path fill="none" stroke-dasharray="none" d="M1280 285 L1335 285" clip-path="url(#clipPath2)"/>
    </g>
    <g stroke-linecap="round" transform="matrix(1,0,0,1,15,15)" stroke-dashoffset="2" text-rendering="geometricPrecision" shape-rendering="geometricPrecision" stroke-dasharray="0,8" stroke-width="2" stroke-miterlimit="1.45">
      <path fill="none" d="M1397.4688 285 L1345 285" clip-path="url(#clipPath2)"/>
    </g>
    <g stroke-linecap="butt" transform="matrix(1,0,0,1,15,15)" fill="rgb(51,153,102)" text-rendering="geometricPrecision" shape-rendering="geometricPrecision" stroke="rgb(51,153,102)" stroke-width="3" stroke-miterlimit="1.45">
      <path fill="none" d="M1175 220 L1230 220" clip-path="url(#clipPath2)"/>
    </g>
    <g stroke-linecap="round" transform="matrix(1,0,0,1,15,15)" stroke-dashoffset="2" text-rendering="geometricPrecision" shape-rendering="geometricPrecision" stroke-dasharray="0,8" stroke-width="2" stroke-miterlimit="1.45">
      <path fill="none" d="M1235 234.9609 L1235 225" clip-path="url(#clipPath2)"/>
      <path fill="none" d="M1302.4688 220 L1240 220" clip-path="url(#clipPath2)"/>
      <path fill="none" d="M1235 205 L1235 215" clip-path="url(#clipPath2)"/>
    </g>
    <g stroke-linecap="butt" transform="matrix(1,0,0,1,15,15)" fill="rgb(51,153,102)" text-rendering="geometricPrecision" shape-rendering="geometricPrecision" stroke="rgb(51,153,102)" stroke-width="3" stroke-miterlimit="1.45">
      <path fill="none" d="M1050 150 L1050 165" clip-path="url(#clipPath2)"/>
      <path fill="none" d="M1050 175 L1050 190" clip-path="url(#clipPath2)"/>
      <path fill="none" d="M1275 290 L1275 335" stroke-width="2" clip-path="url(#clipPath2)"/>
    </g>
    <g stroke-linecap="round" transform="matrix(1,0,0,1,15,15)" stroke-dashoffset="2" text-rendering="geometricPrecision" shape-rendering="geometricPrecision" stroke-dasharray="0,8" stroke-width="2" stroke-miterlimit="1.45">
      <path fill="none" d="M1202.5017 340 L1270 340" clip-path="url(#clipPath2)"/>
      <path fill="none" d="M1275 355 L1275 345" clip-path="url(#clipPath2)"/>
    </g>
    <g stroke-linecap="butt" transform="matrix(1,0,0,1,15,15)" fill="rgb(51,153,102)" text-rendering="geometricPrecision" shape-rendering="geometricPrecision" stroke="rgb(51,153,102)" stroke-width="2" stroke-miterlimit="1.45">
      <path fill="none" d="M1045 220 L990 220" clip-path="url(#clipPath2)"/>
    </g>
    <g stroke-linecap="round" transform="matrix(1,0,0,1,15,15)" stroke-dashoffset="2" text-rendering="geometricPrecision" shape-rendering="geometricPrecision" stroke-dasharray="0,8" stroke-width="2" stroke-miterlimit="1.45">
      <path fill="none" d="M985 234.9609 L985 225" clip-path="url(#clipPath2)"/>
    </g>
    <g stroke-linecap="butt" transform="matrix(1,0,0,1,15,15)" fill="rgb(51,153,102)" text-rendering="geometricPrecision" shape-rendering="geometricPrecision" stroke="rgb(51,153,102)" stroke-width="2" stroke-miterlimit="1.45">
      <path fill="none" d="M1050 200 L1050 215" clip-path="url(#clipPath2)"/>
      <path fill="none" d="M1055 220 L1165 220" clip-path="url(#clipPath2)"/>
      <path fill="none" d="M1165 285 L1270 285" clip-path="url(#clipPath2)"/>
    </g>
    <g stroke-linecap="round" transform="matrix(1,0,0,1,15,15)" stroke-dashoffset="2" text-rendering="geometricPrecision" shape-rendering="geometricPrecision" stroke-dasharray="0,8" stroke-width="2" stroke-miterlimit="1.45">
      <path fill="none" d="M1050 130 L1050 140" clip-path="url(#clipPath2)"/>
    </g>
    <g stroke-linecap="butt" transform="matrix(1,0,0,1,15,15)" fill="rgb(51,153,102)" text-rendering="geometricPrecision" shape-rendering="geometricPrecision" stroke="rgb(51,153,102)" stroke-width="2" stroke-miterlimit="1.45">
      <path fill="none" d="M1050 225 L1050 405" clip-path="url(#clipPath2)"/>
    </g>
    <g stroke-linecap="round" transform="matrix(1,0,0,1,15,15)" stroke-dashoffset="2" text-rendering="geometricPrecision" shape-rendering="geometricPrecision" stroke-dasharray="0,8" stroke-width="2" stroke-miterlimit="1.45">
      <path fill="none" d="M987.4968 410 L1045 410" clip-path="url(#clipPath2)"/>
      <path fill="none" d="M1050 434.9609 L1050 415" clip-path="url(#clipPath2)"/>
      <path fill="none" d="M1192.4688 410 L1055 410" clip-path="url(#clipPath2)"/>
    </g>
    <g stroke-linecap="butt" transform="matrix(1,0,0,1,15,15)" fill="rgb(51,153,102)" text-rendering="geometricPrecision" shape-rendering="geometricPrecision" stroke-dasharray="12,4" stroke="rgb(51,153,102)" stroke-width="2" stroke-miterlimit="1.45">
      <path fill="none" d="M1050 415 L1050 430 L615 430 L615 380" clip-path="url(#clipPath2)"/>
      <path fill="none" stroke-dasharray="none" d="M980 220 L925 220" clip-path="url(#clipPath2)"/>
    </g>
    <g stroke-linecap="round" transform="matrix(1,0,0,1,15,15)" stroke-dashoffset="2" text-rendering="geometricPrecision" shape-rendering="geometricPrecision" stroke-dasharray="0,8" stroke-width="2" stroke-miterlimit="1.45">
      <path fill="none" d="M920 200 L920 215" clip-path="url(#clipPath2)"/>
      <path fill="none" d="M857.4968 220 L915 220" clip-path="url(#clipPath2)"/>
    </g>
    <g text-rendering="geometricPrecision" shape-rendering="geometricPrecision" transform="matrix(1,0,0,1,15,15)">
      <circle r="5" clip-path="url(#clipPath2)" cx="1160" cy="285" stroke="none"/>
      <circle stroke-linecap="butt" clip-path="url(#clipPath2)" fill="none" r="5" cx="1160" cy="285" stroke-miterlimit="1.45"/>
      <text stroke-linecap="butt" x="1136.1611" y="289.5352" clip-path="url(#clipPath2)" font-family="sans-serif" stroke="none" stroke-miterlimit="1.45" xml:space="preserve">bus.671</text>
      <circle r="5" clip-path="url(#clipPath2)" cx="1225" cy="310" stroke="none"/>
      <circle stroke-linecap="butt" clip-path="url(#clipPath2)" fill="none" r="5" cx="1225" cy="310" stroke-miterlimit="1.45"/>
      <text stroke-linecap="butt" x="1201.1611" y="314.5352" clip-path="url(#clipPath2)" font-family="sans-serif" stroke="none" stroke-miterlimit="1.45" xml:space="preserve">bus.680</text>
      <circle r="5" clip-path="url(#clipPath2)" cx="1340" cy="285" stroke="none"/>
      <circle stroke-linecap="butt" clip-path="url(#clipPath2)" fill="none" r="5" cx="1340" cy="285" stroke-miterlimit="1.45"/>
      <text stroke-linecap="butt" x="1316.1611" y="289.5352" clip-path="url(#clipPath2)" font-family="sans-serif" stroke="none" stroke-miterlimit="1.45" xml:space="preserve">bus.652</text>
      <circle r="5" clip-path="url(#clipPath2)" cx="1235" cy="220" stroke="none"/>
      <circle stroke-linecap="butt" clip-path="url(#clipPath2)" fill="none" r="5" cx="1235" cy="220" stroke-miterlimit="1.45"/>
      <text stroke-linecap="butt" x="1211.1611" y="224.5352" clip-path="url(#clipPath2)" font-family="sans-serif" stroke="none" stroke-miterlimit="1.45" xml:space="preserve">bus.634</text>
      <circle r="5" clip-path="url(#clipPath2)" cx="1050" cy="170" stroke="none"/>
      <circle stroke-linecap="butt" clip-path="url(#clipPath2)" fill="none" r="5" cx="1050" cy="170" stroke-miterlimit="1.45"/>
      <text stroke-linecap="butt" x="1026.1611" y="174.5352" clip-path="url(#clipPath2)" font-family="sans-serif" stroke="none" stroke-miterlimit="1.45" xml:space="preserve">bus.650</text>
      <circle r="5" clip-path="url(#clipPath2)" cx="1050" cy="195" stroke="none"/>
      <circle stroke-linecap="butt" clip-path="url(#clipPath2)" fill="none" r="5" cx="1050" cy="195" stroke-miterlimit="1.45"/>
      <text stroke-linecap="butt" x="1023.7588" y="199.5352" clip-path="url(#clipPath2)" font-family="sans-serif" stroke="none" stroke-miterlimit="1.45" xml:space="preserve">bus.rg60</text>
      <circle r="5" clip-path="url(#clipPath2)" cx="1275" cy="340" stroke="none"/>
      <circle stroke-linecap="butt" clip-path="url(#clipPath2)" fill="none" r="5" cx="1275" cy="340" stroke-miterlimit="1.45"/>
      <text stroke-linecap="butt" x="1251.1611" y="344.5352" clip-path="url(#clipPath2)" font-family="sans-serif" stroke="none" stroke-miterlimit="1.45" xml:space="preserve">bus.611</text>
      <circle r="5" clip-path="url(#clipPath2)" cx="985" cy="220" stroke="none"/>
      <circle stroke-linecap="butt" clip-path="url(#clipPath2)" fill="none" r="5" cx="985" cy="220" stroke-miterlimit="1.45"/>
      <text stroke-linecap="butt" x="961.1611" y="224.5352" clip-path="url(#clipPath2)" font-family="sans-serif" stroke="none" stroke-miterlimit="1.45" xml:space="preserve">bus.645</text>
      <circle r="5" clip-path="url(#clipPath2)" cx="1050" cy="220" stroke="none"/>
      <circle stroke-linecap="butt" clip-path="url(#clipPath2)" fill="none" r="5" cx="1050" cy="220" stroke-miterlimit="1.45"/>
      <text stroke-linecap="butt" x="1026.1611" y="224.5352" clip-path="url(#clipPath2)" font-family="sans-serif" stroke="none" stroke-miterlimit="1.45" xml:space="preserve">bus.632</text>
      <circle r="5" clip-path="url(#clipPath2)" cx="1170" cy="220" stroke="none"/>
      <circle stroke-linecap="butt" clip-path="url(#clipPath2)" fill="none" r="5" cx="1170" cy="220" stroke-miterlimit="1.45"/>
      <text stroke-linecap="butt" x="1146.1611" y="224.5352" clip-path="url(#clipPath2)" font-family="sans-serif" stroke="none" stroke-miterlimit="1.45" xml:space="preserve">bus.633</text>
      <circle r="5" clip-path="url(#clipPath2)" cx="1275" cy="285" stroke="none"/>
      <circle stroke-linecap="butt" clip-path="url(#clipPath2)" fill="none" r="5" cx="1275" cy="285" stroke-miterlimit="1.45"/>
      <text stroke-linecap="butt" x="1251.1611" y="289.5352" clip-path="url(#clipPath2)" font-family="sans-serif" stroke="none" stroke-miterlimit="1.45" xml:space="preserve">bus.684</text>
      <circle r="5" clip-path="url(#clipPath2)" cx="1050" cy="145" stroke="none"/>
      <circle stroke-linecap="butt" clip-path="url(#clipPath2)" fill="none" r="5" cx="1050" cy="145" stroke-miterlimit="1.45"/>
      <text stroke-linecap="butt" x="1007.6455" y="149.5352" clip-path="url(#clipPath2)" font-family="sans-serif" stroke="none" stroke-miterlimit="1.45" xml:space="preserve">bus.sourcebus</text>
      <circle r="5" clip-path="url(#clipPath2)" cx="1050" cy="410" stroke="none"/>
      <circle stroke-linecap="butt" clip-path="url(#clipPath2)" fill="none" r="5" cx="1050" cy="410" stroke-miterlimit="1.45"/>
      <text stroke-linecap="butt" x="1026.1611" y="414.5352" clip-path="url(#clipPath2)" font-family="sans-serif" stroke="none" stroke-miterlimit="1.45" xml:space="preserve">bus.670</text>
      <circle r="5" clip-path="url(#clipPath2)" cx="920" cy="220" stroke="none"/>
      <circle stroke-linecap="butt" clip-path="url(#clipPath2)" fill="none" r="5" cx="920" cy="220" stroke-miterlimit="1.45"/>
      <text stroke-linecap="butt" x="896.1611" y="224.5352" clip-path="url(#clipPath2)" font-family="sans-serif" stroke="none" stroke-miterlimit="1.45" xml:space="preserve">bus.646</text>
      <path fill="rgb(255,204,0)" d="M1144.9999 235 L1174.9999 235 L1159.9999 265 Z" clip-path="url(#clipPath2)" fill-rule="evenodd" stroke="none"/>
      <path fill="none" stroke-miterlimit="1.45" d="M1144.9999 235 L1174.9999 235 L1159.9999 265 Z" fill-rule="evenodd" clip-path="url(#clipPath2)" stroke-linecap="butt"/>
      <text stroke-linecap="butt" x="1127.416" y="254.5352" clip-path="url(#clipPath2)" font-family="sans-serif" stroke="none" stroke-miterlimit="1.45" xml:space="preserve">load.671_1</text>
      <path fill="rgb(255,204,0)" d="M1220.0001 235 L1250.0001 235 L1235.0001 265 Z" clip-path="url(#clipPath2)" fill-rule="evenodd" stroke="none"/>
      <path fill="none" stroke-miterlimit="1.45" d="M1220.0001 235 L1250.0001 235 L1235.0001 265 Z" fill-rule="evenodd" clip-path="url(#clipPath2)" stroke-linecap="butt"/>
      <text stroke-linecap="butt" x="1205.8965" y="254.5352" clip-path="url(#clipPath2)" font-family="sans-serif" stroke="none" stroke-miterlimit="1.45" xml:space="preserve">load.634a</text>
      <path fill="rgb(255,204,0)" d="M1389.9999 270 L1419.9999 270 L1404.9999 300 Z" clip-path="url(#clipPath2)" fill-rule="evenodd" stroke="none"/>
      <path fill="none" stroke-miterlimit="1.45" d="M1389.9999 270 L1419.9999 270 L1404.9999 300 Z" fill-rule="evenodd" clip-path="url(#clipPath2)" stroke-linecap="butt"/>
      <text stroke-linecap="butt" x="1379.21" y="289.5352" clip-path="url(#clipPath2)" font-family="sans-serif" stroke="none" stroke-miterlimit="1.45" xml:space="preserve">load.652</text>
      <path fill="rgb(255,204,0)" d="M1075 270 L1105 270 L1090 300 Z" clip-path="url(#clipPath2)" fill-rule="evenodd" stroke="none"/>
      <path fill="none" stroke-miterlimit="1.45" d="M1075 270 L1105 270 L1090 300 Z" fill-rule="evenodd" clip-path="url(#clipPath2)" stroke-linecap="butt"/>
      <text stroke-linecap="butt" x="1057.416" y="289.5352" clip-path="url(#clipPath2)" font-family="sans-serif" stroke="none" stroke-miterlimit="1.45" xml:space="preserve">load.671_3</text>
      <path fill="rgb(255,204,0)" d="M905.0001 170 L935.0001 170 L920.0001 200 Z" clip-path="url(#clipPath2)" fill-rule="evenodd" stroke="none"/>
      <path fill="none" stroke-miterlimit="1.45" d="M905.0001 170 L935.0001 170 L920.0001 200 Z" fill-rule="evenodd" clip-path="url(#clipPath2)" stroke-linecap="butt"/>
      <text stroke-linecap="butt" x="887.416" y="189.5352" clip-path="url(#clipPath2)" font-family="sans-serif" stroke="none" stroke-miterlimit="1.45" xml:space="preserve">load.646_3</text>
      <path fill="rgb(255,204,0)" d="M965.0001 395 L995.0001 395 L980.0001 425 Z" clip-path="url(#clipPath2)" fill-rule="evenodd" stroke="none"/>
      <path fill="none" stroke-miterlimit="1.45" d="M965.0001 395 L995.0001 395 L980.0001 425 Z" fill-rule="evenodd" clip-path="url(#clipPath2)" stroke-linecap="butt"/>
      <text stroke-linecap="butt" x="951.1367" y="414.5352" clip-path="url(#clipPath2)" font-family="sans-serif" stroke="none" stroke-miterlimit="1.45" xml:space="preserve">load.670c</text>
      <path fill="rgb(255,204,0)" d="M1180 325 L1210 325 L1195 355 Z" clip-path="url(#clipPath2)" fill-rule="evenodd" stroke="none"/>
      <path fill="none" stroke-miterlimit="1.45" d="M1180 325 L1210 325 L1195 355 Z" fill-rule="evenodd" clip-path="url(#clipPath2)" stroke-linecap="butt"/>
      <text stroke-linecap="butt" x="1169.21" y="344.5352" clip-path="url(#clipPath2)" font-family="sans-serif" stroke="none" stroke-miterlimit="1.45" xml:space="preserve">load.611</text>
      <path fill="rgb(255,204,0)" d="M970.0001 235 L1000.0001 235 L985.0001 265 Z" clip-path="url(#clipPath2)" fill-rule="evenodd" stroke="none"/>
      <path fill="none" stroke-miterlimit="1.45" d="M970.0001 235 L1000.0001 235 L985.0001 265 Z" fill-rule="evenodd" clip-path="url(#clipPath2)" stroke-linecap="butt"/>
      <text stroke-linecap="butt" x="959.21" y="254.5352" clip-path="url(#clipPath2)" font-family="sans-serif" stroke="none" stroke-miterlimit="1.45" xml:space="preserve">load.645</text>
      <path fill="rgb(255,204,0)" d="M1295 205 L1325 205 L1310 235 Z" clip-path="url(#clipPath2)" fill-rule="evenodd" stroke="none"/>
      <path fill="none" stroke-miterlimit="1.45" d="M1295 205 L1325 205 L1310 235 Z" fill-rule="evenodd" clip-path="url(#clipPath2)" stroke-linecap="butt"/>
      <text stroke-linecap="butt" x="1281.1367" y="224.5352" clip-path="url(#clipPath2)" font-family="sans-serif" stroke="none" stroke-miterlimit="1.45" xml:space="preserve">load.634c</text>
      <path fill="rgb(255,204,0)" d="M1075 304.9999 L1105 304.9999 L1090 334.9999 Z" clip-path="url(#clipPath2)" fill-rule="evenodd" stroke="none"/>
      <path fill="none" stroke-miterlimit="1.45" d="M1075 304.9999 L1105 304.9999 L1090 334.9999 Z" fill-rule="evenodd" clip-path="url(#clipPath2)" stroke-linecap="butt"/>
      <text stroke-linecap="butt" x="1057.416" y="324.5352" clip-path="url(#clipPath2)" font-family="sans-serif" stroke="none" stroke-miterlimit="1.45" xml:space="preserve">load.671_2</text>
      <path fill="rgb(255,204,0)" d="M1035.0001 435 L1065.0001 435 L1050.0001 465 Z" clip-path="url(#clipPath2)" fill-rule="evenodd" stroke="none"/>
      <path fill="none" stroke-miterlimit="1.45" d="M1035.0001 435 L1065.0001 435 L1050.0001 465 Z" fill-rule="evenodd" clip-path="url(#clipPath2)" stroke-linecap="butt"/>
      <text stroke-linecap="butt" x="1020.4336" y="454.5352" clip-path="url(#clipPath2)" font-family="sans-serif" stroke="none" stroke-miterlimit="1.45" xml:space="preserve">load.670b</text>
      <path fill="rgb(255,204,0)" d="M1220.0001 175 L1250.0001 175 L1235.0001 205 Z" clip-path="url(#clipPath2)" fill-rule="evenodd" stroke="none"/>
      <path fill="none" stroke-miterlimit="1.45" d="M1220.0001 175 L1250.0001 175 L1235.0001 205 Z" fill-rule="evenodd" clip-path="url(#clipPath2)" stroke-linecap="butt"/>
      <text stroke-linecap="butt" x="1205.4336" y="194.5352" clip-path="url(#clipPath2)" font-family="sans-serif" stroke="none" stroke-miterlimit="1.45" xml:space="preserve">load.634b</text>
      <path fill="rgb(255,204,0)" d="M1185 395 L1215 395 L1200 425 Z" clip-path="url(#clipPath2)" fill-rule="evenodd" stroke="none"/>
      <path fill="none" stroke-miterlimit="1.45" d="M1185 395 L1215 395 L1200 425 Z" fill-rule="evenodd" clip-path="url(#clipPath2)" stroke-linecap="butt"/>
      <text stroke-linecap="butt" x="1170.8965" y="414.5352" clip-path="url(#clipPath2)" font-family="sans-serif" stroke="none" stroke-miterlimit="1.45" xml:space="preserve">load.670a</text>
      <path fill="rgb(255,204,0)" d="M834.9999 205 L864.9999 205 L849.9999 235 Z" clip-path="url(#clipPath2)" fill-rule="evenodd" stroke="none"/>
      <path fill="none" stroke-miterlimit="1.45" d="M834.9999 205 L864.9999 205 L849.9999 235 Z" fill-rule="evenodd" clip-path="url(#clipPath2)" stroke-linecap="butt"/>
      <text stroke-linecap="butt" x="817.416" y="224.5352" clip-path="url(#clipPath2)" font-family="sans-serif" stroke="none" stroke-miterlimit="1.45" xml:space="preserve">load.646_2</text>
      <path fill="rgb(255,153,204)" d="M1275 355 L1290 385 L1260 385 Z" clip-path="url(#clipPath2)" fill-rule="evenodd" stroke="none"/>
      <path fill="none" stroke-miterlimit="1.45" d="M1275 355 L1290 385 L1260 385 Z" fill-rule="evenodd" clip-path="url(#clipPath2)" stroke-linecap="butt"/>
      <text stroke-linecap="butt" x="1232.4756" y="374.5352" clip-path="url(#clipPath2)" font-family="sans-serif" stroke="none" stroke-miterlimit="1.45" xml:space="preserve">capacitor.cap2</text>
      <path fill="red" d="M1050.0001 130 L1053.4442 123.3149 L1060.6067 125.6066 L1058.3151 118.4442 L1065.0001 115 L1058.3151 111.5559 L1060.6067 104.3934 L1053.4442 106.6851 L1050.0001 100 L1046.5559 106.6851 L1039.3936 104.3934 L1041.6852 111.5559 L1035.0001 115 L1041.6852 118.4442 L1039.3936 125.6066 L1046.5559 123.3149 Z" clip-path="url(#clipPath2)" fill-rule="evenodd" stroke="none"/>
      <path fill="none" stroke-miterlimit="1.45" d="M1050.0001 130 L1053.4442 123.3149 L1060.6067 125.6066 L1058.3151 118.4442 L1065.0001 115 L1058.3151 111.5559 L1060.6067 104.3934 L1053.4442 106.6851 L1050.0001 100 L1046.5559 106.6851 L1039.3936 104.3934 L1041.6852 111.5559 L1035.0001 115 L1041.6852 118.4442 L1039.3936 125.6066 L1046.5559 123.3149 Z" fill-rule="evenodd" clip-path="url(#clipPath2)" stroke-linecap="butt"/>
      <text stroke-linecap="butt" x="1006.3184" y="119.5352" clip-path="url(#clipPath2)" font-family="sans-serif" stroke="none" stroke-miterlimit="1.45" xml:space="preserve">vsource.source</text>
    </g>
    <g transform="matrix(1,0,0,1,15,15)" fill-opacity="0.149" fill="rgb(223,193,255)" text-rendering="geometricPrecision" shape-rendering="geometricPrecision" stroke="rgb(223,193,255)" stroke-opacity="0.149">
      <rect x="0" width="120" height="485" y="35" clip-path="url(#clipPath2)" stroke="none"/>
    </g>
    <g fill="rgb(64,64,64)" text-rendering="geometricPrecision" shape-rendering="geometricPrecision" transform="matrix(1,0,0,1,15,15)" stroke="rgb(64,64,64)">
      <rect x="0" width="120" height="4" y="35" clip-path="url(#clipPath2)" stroke="none"/>
    </g>
    <g transform="matrix(1,0,0,1,15,15)" fill-opacity="0.149" fill="rgb(255,255,255)" text-rendering="geometricPrecision" shape-rendering="geometricPrecision" stroke="rgb(255,255,255)" stroke-opacity="0.149">
      <rect x="0" width="1" height="485" y="35" clip-path="url(#clipPath2)" stroke="none"/>
      <rect x="1" width="118" height="1" y="35" clip-path="url(#clipPath2)" stroke="none"/>
      <rect x="1" y="519" clip-path="url(#clipPath2)" fill="rgb(156,135,178)" width="119" height="1" stroke="none"/>
      <rect x="119" y="35" clip-path="url(#clipPath2)" fill="rgb(156,135,178)" width="1" height="484" stroke="none"/>
    </g>
    <g stroke-linecap="butt" transform="matrix(1,0,0,1,15,15)" fill="rgb(51,153,102)" text-rendering="geometricPrecision" shape-rendering="geometricPrecision" stroke="rgb(51,153,102)" stroke-width="2" stroke-miterlimit="1.45">
      <path fill="none" d="M60 485 L60 75" clip-path="url(#clipPath2)"/>
      <path fill="none" stroke-dasharray="12,4" d="M300 455 L300 490 L65 490" clip-path="url(#clipPath2)"/>
    </g>
    <g text-rendering="geometricPrecision" shape-rendering="geometricPrecision" transform="matrix(1,0,0,1,15,15)">
      <circle r="5" clip-path="url(#clipPath2)" cx="60" cy="70" stroke="none"/>
      <circle stroke-linecap="butt" clip-path="url(#clipPath2)" fill="none" r="5" cx="60" cy="70" stroke-miterlimit="1.45"/>
      <text stroke-linecap="butt" x="36.1611" y="74.5352" clip-path="url(#clipPath2)" font-family="sans-serif" stroke="none" stroke-miterlimit="1.45" xml:space="preserve">bus.800</text>
      <circle r="5" clip-path="url(#clipPath2)" cx="60" cy="490" stroke="none"/>
      <circle stroke-linecap="butt" clip-path="url(#clipPath2)" fill="none" r="5" cx="60" cy="490" stroke-miterlimit="1.45"/>
      <text stroke-linecap="butt" x="25.4443" y="494.5352" clip-path="url(#clipPath2)" font-family="sans-serif" stroke="none" stroke-miterlimit="1.45" xml:space="preserve">bus.800aux</text>
    </g>
    <g transform="matrix(1,0,0,1,15,15)" fill-opacity="0.149" fill="rgb(223,193,255)" text-rendering="geometricPrecision" shape-rendering="geometricPrecision" stroke="rgb(223,193,255)" stroke-opacity="0.149">
      <rect x="125" width="180" height="135" y="0" clip-path="url(#clipPath2)" stroke="none"/>
    </g>
    <g fill="rgb(64,64,64)" text-rendering="geometricPrecision" shape-rendering="geometricPrecision" transform="matrix(1,0,0,1,15,15)" stroke="rgb(64,64,64)">
      <rect x="125" width="180" height="4" y="0" clip-path="url(#clipPath2)" stroke="none"/>
    </g>
    <g transform="matrix(1,0,0,1,15,15)" fill-opacity="0.149" fill="rgb(255,255,255)" text-rendering="geometricPrecision" shape-rendering="geometricPrecision" stroke="rgb(255,255,255)" stroke-opacity="0.149">
      <rect x="125" width="1" height="135" y="0" clip-path="url(#clipPath2)" stroke="none"/>
      <rect x="126" width="178" height="1" y="0" clip-path="url(#clipPath2)" stroke="none"/>
      <rect x="126" y="134" clip-path="url(#clipPath2)" fill="rgb(156,135,178)" width="179" height="1" stroke="none"/>
      <rect x="304" y="0" clip-path="url(#clipPath2)" fill="rgb(156,135,178)" width="1" height="134" stroke="none"/>
    </g>
    <g stroke-linecap="round" transform="matrix(1,0,0,1,15,15)" stroke-dashoffset="2" text-rendering="geometricPrecision" shape-rendering="geometricPrecision" stroke-dasharray="0,8" stroke-width="2" stroke-miterlimit="1.45">
      <path fill="none" d="M215 55 L215 65" clip-path="url(#clipPath2)"/>
      <path fill="none" d="M215 84.9609 L215 75" clip-path="url(#clipPath2)"/>
    </g>
    <g stroke-linecap="butt" transform="matrix(1,0,0,1,15,15)" fill="rgb(51,153,102)" text-rendering="geometricPrecision" shape-rendering="geometricPrecision" stroke-dasharray="12,4" stroke="rgb(51,153,102)" stroke-width="2" stroke-miterlimit="1.45">
      <path fill="none" d="M65 70 L210 70" clip-path="url(#clipPath2)"/>
      <path fill="none" d="M220 70 L1730 70" clip-path="url(#clipPath2)" stroke="red"/>
    </g>
    <g text-rendering="geometricPrecision" shape-rendering="geometricPrecision" transform="matrix(1,0,0,1,15,15)">
      <circle r="5" clip-path="url(#clipPath2)" cx="215" cy="70" stroke="none"/>
      <circle stroke-linecap="butt" clip-path="url(#clipPath2)" fill="none" r="5" cx="215" cy="70" stroke-miterlimit="1.45"/>
      <text stroke-linecap="butt" x="191.1611" y="74.5352" clip-path="url(#clipPath2)" font-family="sans-serif" stroke="none" stroke-miterlimit="1.45" xml:space="preserve">bus.801</text>
      <path fill="rgb(255,204,0)" d="M200 25 L230 25 L215 55 Z" clip-path="url(#clipPath2)" fill-rule="evenodd" stroke="none"/>
      <path fill="none" stroke-miterlimit="1.45" d="M200 25 L230 25 L215 55 Z" fill-rule="evenodd" clip-path="url(#clipPath2)" stroke-linecap="butt"/>
      <text stroke-linecap="butt" x="189.21" y="44.5352" clip-path="url(#clipPath2)" font-family="sans-serif" stroke="none" stroke-miterlimit="1.45" xml:space="preserve">load.801</text>
      <path fill="aqua" d="M200 85 L230 85 L222.5 115 L207.5 115 Z" clip-path="url(#clipPath2)" fill-rule="evenodd" stroke="none"/>
      <path fill="none" stroke-miterlimit="1.45" d="M200 85 L230 85 L222.5 115 L207.5 115 Z" fill-rule="evenodd" clip-path="url(#clipPath2)" stroke-linecap="butt"/>
      <text stroke-linecap="butt" x="151.54" y="104.5352" clip-path="url(#clipPath2)" font-family="sans-serif" stroke="none" stroke-miterlimit="1.45" xml:space="preserve">storage.battery_mg1c</text>
    </g>
  </g>
</svg>
